<?xml version="1.0" encoding="utf-8"?>
<!-- Generator: Adobe Illustrator 22.0.1, SVG Export Plug-In . SVG Version: 6.00 Build 0)  -->
<svg version="1.1" id="图层_1" xmlns="http://www.w3.org/2000/svg" xmlns:xlink="http://www.w3.org/1999/xlink" x="0px" y="0px"
	 width="400px" height="400px" viewBox="0 0 564 488" style="enable-background:new 0 0 564 488;" xml:space="preserve">
<style type="text/css">
	.st0{opacity:0.3;fill:url(#SVGID_1_);enable-background:new    ;}
	.st1{fill:#245AB7;}
	.st2{opacity:0.3;fill:url(#SVGID_2_);enable-background:new    ;}
	.st3{opacity:0.3;fill:url(#SVGID_3_);enable-background:new    ;}
	.st4{fill:none;stroke:#245AB7;stroke-width:1.158;}
	.st5{fill:#FFFFFF;}
	.st6{opacity:0.25;fill:#245AB7;}
	.st7{fill:none;stroke:#344453;stroke-width:3;stroke-linecap:round;stroke-linejoin:round;}
	.st8{opacity:0.2;fill:#FFFFFF;stroke:#245AB7;enable-background:new    ;}
	.st9{fill:#F0EEEC;}
	.st10{opacity:0.4;fill:#FFFFFF;enable-background:new    ;}
	.st11{opacity:0.2;fill:#FFFFFF;enable-background:new    ;}
	.st12{fill:none;stroke:#245AB7;stroke-linecap:round;stroke-linejoin:round;}
	.st13{opacity:0.2;fill:#245AB7;enable-background:new    ;}
	.st14{fill:#344453;}
	.st15{fill:none;stroke:#FFFFFF;stroke-width:0.75;stroke-miterlimit:10;}
	.st16{opacity:0.2;fill:none;stroke:#245AB7;enable-background:new    ;}
	.st17{opacity:0.1;fill:none;stroke:#245AB7;enable-background:new    ;}
	.st18{opacity:5.000000e-02;fill:none;stroke:#245AB7;enable-background:new    ;}
	.st19{opacity:0.5;}
	.st20{fill:none;stroke:#FFFFFF;}
	.st21{opacity:0.3;fill:url(#SVGID_4_);enable-background:new    ;}
</style>
<linearGradient id="SVGID_1_" gradientUnits="userSpaceOnUse" x1="-47.3021" y1="12.1898" x2="-48.3023" y2="12.1898" gradientTransform="matrix(50.314 -37.9143 13.8417 18.3686 2767.9915 -1986.5471)">
	<stop  offset="0" style="stop-color:#FFFFFF"/>
	<stop  offset="1" style="stop-color:#245AB7"/>
</linearGradient>
<path class="st0" d="M499.5,59.5l50.3-37.9L563.7,40l-50.3,37.9L499.5,59.5z"/>
<circle class="st1" cx="509" cy="67.2" r="11.5"/>
<circle class="st1" cx="492.2" cy="419.6" r="11.5"/>
<g transform="rotate(-17 219.507 46.772)">
	<circle class="st1" cx="50.5" cy="56.4" r="11.5"/>
	
		<linearGradient id="SVGID_2_" gradientUnits="userSpaceOnUse" x1="-207.2584" y1="-40.0798" x2="-208.2584" y2="-40.0798" gradientTransform="matrix(-41.3317 -47.5467 17.3584 -15.0893 -7857.5566 -10451.623)">
		<stop  offset="0" style="stop-color:#FFFFFF"/>
		<stop  offset="1" style="stop-color:#245AB7"/>
	</linearGradient>
	<path class="st2" d="M41.5,62.8L0.2,15.2L17.5,0.1l41.3,47.5L41.5,62.8z"/>
</g>
<linearGradient id="SVGID_3_" gradientUnits="userSpaceOnUse" x1="-41.2501" y1="8.9199" x2="-42.2505" y2="8.9199" gradientTransform="matrix(46.8181 42.1552 -15.39 17.0923 2606.4473 2047.1804)">
	<stop  offset="0" style="stop-color:#FFFFFF"/>
	<stop  offset="1" style="stop-color:#245AB7"/>
</linearGradient>
<path class="st3" d="M498.8,410l46.8,42.2l-15.4,17.1l-46.8-42.2L498.8,410z"/>
<g transform="translate(102 45)">
	<g>
		<path id="b_1_" class="st4" d="M199.7,398.5c109.9,0,199.1-89.1,199.1-199.1c0-109.9-89.1-199.1-199.1-199.1
			C89.7,0.3,0.6,89.5,0.6,199.4C0.6,309.4,89.7,398.5,199.7,398.5z"/>
	</g>
	<g>
		<g transform="translate(64 104)">
			<circle class="st5" cx="73.1" cy="134.5" r="4.6"/>
			<path class="st6" d="M360.9,153.1H124.3c-1.5,0-2.6-1.2-2.6-2.6V13.9c0-1.5,1.2-2.6,2.6-2.6l0,0h236.6c1.5,0,2.6,1.2,2.6,2.6
				v136.6C363.6,151.9,362.4,153.1,360.9,153.1z"/>
			<path class="st7" d="M150,151.6l-7,25.5 M351.5,151.6l7,25.5L351.5,151.6z"/>
			<path class="st1" d="M369.2,153.1H132.6c-1.5,0-2.6-1.2-2.6-2.6V13.9c0-1.5,1.2-2.6,2.6-2.6l0,0h236.6c1.5,0,2.6,1.2,2.6,2.6
				v136.6C371.8,151.9,370.6,153.1,369.2,153.1L369.2,153.1 M98.6,132.3H73.4c-3.6,0-6.5-2.9-6.5-6.5V61.4c0-3.6,2.9-6.5,6.5-6.5
				l0,0h25.2c3.6,0,6.5,2.9,6.5,6.5l0,0v64.3C105.2,129.3,102.2,132.3,98.6,132.3L98.6,132.3"/>
			<path class="st8" d="M160.4,21.4c0,11.6-9.4,21.1-21.1,21.1c-11.6,0-21.1-9.4-21.1-21.1c0-11.6,9.4-21.1,21.1-21.1
				C151,0.3,160.4,9.8,160.4,21.4"/>
			<path class="st8" d="M150.6,21.4c0,6.2-5,11.2-11.2,11.2s-11.2-5-11.2-11.2s5-11.2,11.2-11.2S150.6,15.2,150.6,21.4"/>
			<path class="st9" d="M142.4,21.4c0,1.7-1.4,3.1-3.1,3.1s-3.1-1.4-3.1-3.1s1.4-3.1,3.1-3.1S142.4,19.7,142.4,21.4"/>
			<path class="st6" d="M14.3,154h72.2c7.5,0,13.6,6.1,13.6,13.6l0,0c0,7.5-6.1,13.6-13.6,13.6H14.3c-7.5,0-13.6-6.1-13.6-13.6l0,0
				C0.7,160.1,6.8,154,14.3,154z"/>
			<path class="st1" d="M24.9,154h72.2c7.5,0,13.6,6.1,13.6,13.6l0,0c0,7.5-6.1,13.6-13.6,13.6H24.9c-7.5,0-13.6-6.1-13.6-13.6l0,0
				C11.3,160.1,17.4,154,24.9,154z"/>
			<path class="st5" d="M26.2,171.1c-1.9,0-3.5-1.6-3.5-3.5s1.6-3.5,3.5-3.5l0,0c1.9,0,3.5,1.6,3.5,3.5S28.2,171.1,26.2,171.1"/>
			<path class="st10" d="M36.8,171.1c-1.9,0-3.5-1.6-3.5-3.5s1.6-3.5,3.5-3.5l0,0c1.9,0,3.5,1.6,3.5,3.5S38.7,171.1,36.8,171.1"/>
			<path class="st11" d="M51.1,168c-0.2,1.9-1.9,3.3-3.9,3.1c-1.9-0.2-3.3-1.9-3.1-3.9v-0.1c0.2-1.9,2-3.3,3.9-3
				C49.9,164.4,51.3,166.1,51.1,168L51.1,168"/>
			<path class="st12" d="M24.7,154.3V125"/>
			<path class="st13" d="M25.1,144.3c-11.6,0-21.1-9.4-21.1-21.1s9.4-21.1,21.1-21.1c11.6,0,21.1,9.4,21.1,21.1
				C46.1,134.9,36.7,144.3,25.1,144.3z"/>
			<path class="st13" d="M25.1,134.4c-6.2,0-11.2-5-11.2-11.2s5-11.2,11.2-11.2s11.2,5,11.2,11.2S31.3,134.4,25.1,134.4L25.1,134.4z
				"/>
			<path class="st1" d="M25.1,126.4c-2,0-3.6-1.6-3.6-3.6s1.6-3.6,3.6-3.6s3.6,1.6,3.6,3.6S27.1,126.4,25.1,126.4z"/>
			<path class="st14" d="M30.7,47H15.9c-0.4,0-0.7-0.3-0.7-0.7v-0.1l1.2-7c0.1-0.3,0.4-0.6,0.7-0.6h12.1c0.3,0,0.6,0.2,0.7,0.6
				l1.5,7c0.1,0.4-0.2,0.8-0.5,0.8C30.8,47,30.8,47,30.7,47L30.7,47z M15.9,73.8h14.8c0.4,0,0.8,0.4,0.7,0.8l-1.2,7
				c-0.1,0.3-0.4,0.6-0.7,0.6H17.4c-0.3,0-0.6-0.2-0.7-0.6l-1.5-7c-0.1-0.4,0.2-0.8,0.5-0.8C15.8,73.8,15.8,73.8,15.9,73.8z"/>
			<path class="st1" d="M36.8,57.1c0.7,0,1.3,0.6,1.3,1.3v3.9c0,0.7-0.6,1.3-1.3,1.3h-1.1v6.6c0,2.7-2.2,4.9-4.9,4.9H15.9
				c-2.7,0-4.9-2.2-4.9-4.9V50.5c0-2.7,2.2-4.9,4.9-4.9l0,0h14.8c2.7,0,5,2.2,5,4.9v6.6H36.8z"/>
			<path class="st5" d="M27.9,54.2c0.2-0.3,0.6-0.5,1-0.3s0.5,0.6,0.3,1l0,0l-4.4,7.5c-0.2,0.3-0.6,0.4-1,0.2l0,0l-5-3.4
				c-0.3-0.2-0.4-0.6-0.2-1s0.6-0.4,1-0.2l0,0l4.4,3L27.9,54.2L27.9,54.2z"/>
			<path class="st1" d="M103,37.8l-1.2,1c-4.2-4.6-9.9-7.2-15.9-7.2S74.2,34.2,70,38.8l-1.2-1.1c4.5-4.9,10.6-7.7,17-7.7
				S98.5,32.8,103,37.8z"/>
			<path class="st1" d="M98.1,41.8l-1.2,1c-2.9-3.3-6.8-5.1-11-5.1c-4.1,0-8,1.8-10.9,5l-1.2-1c3.2-3.5,7.5-5.5,12.1-5.5
				S94.9,38.2,98.1,41.8z"/>
			<path class="st1" d="M93.5,45.4l-1.2,1c-1.7-1.9-3.9-3-6.4-3c-2.4,0-4.7,1.1-6.4,3l-1.2-1c1.9-2.2,4.7-3.5,7.6-3.5
				S91.6,43.2,93.5,45.4z"/>
			<line class="st15" x1="74.3" y1="129.4" x2="97.1" y2="129.4"/>
		</g>
	</g>
</g>
<path class="st16" d="M302,466.3c122.8,0,222.3-99.5,222.3-222.3S424.8,21.7,302,21.7S79.7,121.3,79.7,244
	C79.7,366.8,179.2,466.3,302,466.3L302,466.3z"/>
<path class="st17" d="M302,479.8c130.2,0,235.7-105.5,235.7-235.7C537.7,113.8,432.2,8.3,302,8.3S66.3,113.8,66.3,244
	S171.8,479.8,302,479.8L302,479.8z"/>
<path class="st18" d="M302,487.1c134.2,0,243.1-108.8,243.1-243.1S436.2,1,302,1S58.9,109.8,58.9,244
	C58.9,378.3,167.8,487.1,302,487.1z"/>
<g class="st19">
	<path class="st20" d="M395.5,288.1v5.1 M399,288.1v5.1 M402.5,288.1v5.1 M406,288.1v5.1 M409.5,288.1v5.1 M413,288.1v5.1
		 M416.5,288.1v5.1 M420,288.1v5.1 M423.5,288.1v5.1 M427,288.1v5.1 M430.5,288.1v5.1 M434,288.1v5.1 M437.5,288.1v5.1 M441,288.1
		v5.1 M444.5,288.1v5.1"/>
</g>
<g transform="rotate(-17 219.507 46.772)">
	<circle class="st1" cx="-16.2" cy="376.2" r="11.5"/>
	
		<linearGradient id="SVGID_4_" gradientUnits="userSpaceOnUse" x1="-210.7513" y1="-52.9552" x2="-211.7513" y2="-52.9552" gradientTransform="matrix(-60.8533 16.3056 5.9529 22.2163 -12584.2393 5008.6465)">
		<stop  offset="0" style="stop-color:#FFFFFF"/>
		<stop  offset="1" style="stop-color:#245AB7"/>
	</linearGradient>
	<path class="st21" d="M-14.3,388.2l-60.8,16.3l-5.9-22.2l60.9-16.4L-14.3,388.2z"/>
</g>
<g>
	<circle class="st1" cx="288.6" cy="387.8" r="10.6"/>
	<circle class="st1" cx="291.6" cy="379.4" r="7.6"/>
	<circle class="st1" cx="300.9" cy="379.4" r="10.6"/>
	<path class="st1" d="M317.3,398.2c-0.7,0.2-1.5,0.2-2.3,0.2c-6.3,0-11.5-5.1-11.5-11.5s5.1-11.5,11.5-11.5s11.5,5.1,11.5,11.5
		C326.5,392.5,322.5,397.1,317.3,398.2"/>
	<rect x="288.6" y="383.5" class="st1" width="26.6" height="14.9"/>
</g>
</svg>
