<?xml version="1.0" encoding="utf-8"?>
<!-- Generator: Adobe Illustrator 22.0.1, SVG Export Plug-In . SVG Version: 6.00 Build 0)  -->
<svg version="1.1" id="图层_1" xmlns="http://www.w3.org/2000/svg" xmlns:xlink="http://www.w3.org/1999/xlink" x="0px" y="0px"
	 width="80px" height="80px" viewBox="0 0 400 400" style="enable-background:new 0 0 400 400;" xml:space="preserve">
<style type="text/css">
	.st0{clip-path:url(#SVGID_2_);}
	.st1{fill:#325BB1;}
	.st2{clip-path:url(#SVGID_4_);}
	.st3{clip-path:url(#SVGID_6_);}
</style>
<g>
	<defs>
		<rect id="SVGID_1_" x="186.2" y="34" width="183.8" height="78.4"/>
	</defs>
	<clipPath id="SVGID_2_">
		<use xlink:href="#SVGID_1_"  style="overflow:visible;"/>
	</clipPath>
	<g class="st0">
		<path class="st1" d="M218.2,37.1c3.1-1.6,6.5-2.3,10-2.2h8.8h21h42h42h6.7c7.5,0.1,14.4,4.3,17.9,10.9c3.2,6.1,3.2,13.4,0,19.4
			l-0.8,1.4l-1,1.8l-2.7,4.8l-10.9,19.2l-2.8,4.7l-2,3.6c-1.7,3.4-4.3,6.2-7.5,8.1c-3.1,1.9-6.7,2.8-10.3,2.7h-9.4h-21h-42.1h-42
			h-6.7c-7.5-0.1-14.4-4.2-17.9-10.8c-3.5-6.4-3.4-14.1,0.4-20.4l0.3-0.6c0.1-0.2,0.2-0.4,0.3-0.6c0.2-0.4,0.5-0.8,0.7-1.2l2.8-4.7
			L205,54l5.4-9.5C212.3,41.4,215,38.8,218.2,37.1L218.2,37.1z"/>
	</g>
</g>
<g>
	<defs>
		<rect id="SVGID_3_" x="113.2" y="160.9" width="183.8" height="78.4"/>
	</defs>
	<clipPath id="SVGID_4_">
		<use xlink:href="#SVGID_3_"  style="overflow:visible;"/>
	</clipPath>
	<g class="st2">
		<path class="st1" d="M145.2,164c3.1-1.6,6.5-2.4,10-2.2h8.8h21h42h42h6.7c7.5,0.1,14.4,4.3,17.9,10.9c3.3,6.1,3.3,13.4,0,19.4
			l-0.8,1.3l-1,1.8l-2.7,4.8l-10.9,19.2l-2.7,4.8l-2.1,3.6c-1.6,3.4-4.2,6.2-7.5,8.1c-3.1,1.8-6.7,2.7-10.3,2.7h-9.4h-21h-42h-42
			h-6.7c-7.5-0.1-14.4-4.2-17.9-10.8c-3.5-6.4-3.3-14.1,0.4-20.4l0.3-0.6c0.1-0.2,0.2-0.4,0.3-0.6c0.2-0.4,0.5-0.8,0.7-1.2l2.7-4.8
			L132,181l5.4-9.6C139.3,168.3,142,165.7,145.2,164z"/>
	</g>
</g>
<g>
	<defs>
		<rect id="SVGID_5_" x="40" y="287.8" width="183.8" height="78.5"/>
	</defs>
	<clipPath id="SVGID_6_">
		<use xlink:href="#SVGID_5_"  style="overflow:visible;"/>
	</clipPath>
	<g class="st3">
		<path class="st1" d="M72.1,290.9c3-1.6,6.5-2.4,9.9-2.2h8.8h21h42h42h6.7c7.5,0.1,14.4,4.3,18,10.9c3.2,6.1,3.2,13.4,0,19.4
			l-0.8,1.3l-1,1.8l-2.8,4.8L205,346.2l-2.7,4.8l-2.1,3.6c-1.6,3.4-4.2,6.2-7.5,8.1c-3.1,1.9-6.7,2.8-10.2,2.7H173h-21h-42H68h-6.7
			c-7.5-0.1-14.4-4.2-17.9-10.8c-3.5-6.4-3.4-14.1,0.3-20.4l0.3-0.6c0.1-0.2,0.2-0.4,0.3-0.6c0.2-0.4,0.5-0.8,0.7-1.2l2.7-4.8
			l10.9-19.2l5.5-9.6C66.2,295.2,68.8,292.6,72.1,290.9L72.1,290.9z"/>
	</g>
</g>
<g>
</g>
<g>
</g>
<g>
</g>
<g>
</g>
<g>
</g>
<g>
</g>
<g>
</g>
<g>
</g>
<g>
</g>
<g>
</g>
<g>
</g>
<g>
</g>
<g>
</g>
<g>
</g>
<g>
</g>
</svg>
