<?xml version="1.0" encoding="utf-8"?>
<!-- Generator: Adobe Illustrator 22.0.1, SVG Export Plug-In . SVG Version: 6.00 Build 0)  -->
<svg version="1.1" id="图层_1" xmlns="http://www.w3.org/2000/svg" xmlns:xlink="http://www.w3.org/1999/xlink" x="0px" y="0px"
	 width="80px" height="80px" viewBox="0 0 39 39" style="enable-background:new 0 0 39 39;" xml:space="preserve">
<style type="text/css">
	.st0{opacity:0.25;fill:#245AB7;enable-background:new    ;}
	.st1{fill:#245AB7;}
	.st2{fill:#FFFFFF;}
	.st3{opacity:0.4;fill:#FFFFFF;enable-background:new    ;}
	.st4{opacity:0.2;fill:#FFFFFF;enable-background:new    ;}
	.st5{fill:none;stroke:#245AB7;stroke-linecap:round;stroke-linejoin:round;}
	.st6{opacity:0.2;fill:#245AB7;enable-background:new    ;}
</style>
<path class="st0" d="M5.1,28.1h25.1c2.6,0,4.7,2.1,4.7,4.7l0,0c0,2.6-2.1,4.7-4.7,4.7H5.1c-2.6,0-4.7-2.1-4.7-4.7l0,0
	C0.4,30.2,2.5,28.1,5.1,28.1z"/>
<path class="st1" d="M8.8,28.1h25.1c2.6,0,4.7,2.1,4.7,4.7l0,0c0,2.6-2.1,4.7-4.7,4.7H8.8c-2.6,0-4.7-2.1-4.7-4.7l0,0
	C4,30.2,6.2,28.1,8.8,28.1z"/>
<path class="st2" d="M9.2,34C8.5,34,8,33.4,8,32.8c0-0.7,0.6-1.2,1.2-1.2l0,0c0.7,0,1.2,0.6,1.2,1.2C10.4,33.4,9.9,34,9.2,34"/>
<path class="st3" d="M12.9,34c-0.7,0-1.2-0.6-1.2-1.2c0-0.7,0.6-1.2,1.2-1.2l0,0c0.7,0,1.2,0.6,1.2,1.2C14.1,33.4,13.5,34,12.9,34"
	/>
<path class="st4" d="M17.9,32.9c-0.1,0.7-0.7,1.1-1.4,1.1c-0.7-0.1-1.1-0.7-1.1-1.4v0c0.1-0.7,0.7-1.1,1.4-1
	C17.4,31.7,17.9,32.3,17.9,32.9L17.9,32.9"/>
<path class="st5" d="M8.6,28.2V10"/>
<path class="st6" d="M8.5,18c-4.4,0-8-3.6-8-8s3.6-8,8-8c4.4,0,8,3.6,8,8C16.5,14.4,12.9,18,8.5,18z"/>
<path class="st6" d="M8.5,14.2c-2.4,0-4.2-1.9-4.2-4.2s1.9-4.2,4.2-4.2s4.2,1.9,4.2,4.2S10.9,14.2,8.5,14.2L8.5,14.2z"/>
<path class="st1" d="M8.5,11.2c-0.8,0-1.4-0.6-1.4-1.4c0-0.8,0.6-1.4,1.4-1.4s1.4,0.6,1.4,1.4C9.9,10.6,9.3,11.2,8.5,11.2z"/>
<g>
</g>
<g>
</g>
<g>
</g>
<g>
</g>
<g>
</g>
<g>
</g>
<g>
</g>
<g>
</g>
<g>
</g>
<g>
</g>
<g>
</g>
<g>
</g>
<g>
</g>
<g>
</g>
<g>
</g>
</svg>
