<?xml version="1.0" encoding="utf-8"?>
<!-- Generator: Adobe Illustrator 22.0.1, SVG Export Plug-In . SVG Version: 6.00 Build 0)  -->
<svg version="1.1" id="图层_1" xmlns="http://www.w3.org/2000/svg" xmlns:xlink="http://www.w3.org/1999/xlink" x="0px" y="0px"
	 width="80px" height="80px" viewBox="0 0 128 128" style="enable-background:new 0 0 128 128;" xml:space="preserve">
<style type="text/css">
	.st0{fill:#245AB7;}
	.st1{fill:#FFFFFF;stroke:#245AB7;stroke-miterlimit:10;}
	.st2{fill:#FFFFFF;}
</style>
<g>
	<path class="st0" d="M98.8,86.2c0.2,0,0.4,0,0.6,0c0,0.6,0,1.3,0,1.9c-2.3,0.5-4.9-0.3-7.1-1c-5.4-1-10.7-1.9-16.1-2.9
		c-0.3,2.9-3.9,6.1-6.1,7.1c-0.6,0.1-1.3,0.2-1.9,0.3c0,0.1,0,0.2,0,0.3c-0.2,0-0.4,0-0.6,0c0,0.1,0,0.2,0,0.3c-0.5,0-1.1,0-1.6,0
		c-0.7,0.2-3.4,1-4.5,0.6c0-0.1,0-0.2,0-0.3c-1.3-0.1-2.6-0.2-3.9-0.3c0-0.1,0-0.2,0-0.3c-0.2,0-0.4,0-0.6,0c0-0.1,0-0.2,0-0.3
		c-0.3,0-0.6,0-1,0c0-0.1,0-0.2,0-0.3c-0.6-0.2-1.3-0.4-1.9-0.6c0-0.1,0-0.2,0-0.3c-0.2,0-0.4,0-0.6,0c-0.2-0.3-0.4-0.6-0.6-1
		c-0.2,0-0.4,0-0.6,0c-0.1-0.2-0.2-0.4-0.3-0.6c-1.3-1.2-2.7-2.3-2.9-4.5c-2.6,0-5.1,0.7-7.1,1.3c-5.1,1-10.3,1.9-15.4,2.9
		c-0.5-1.4-0.3-3.9-0.3-5.8c0.2,0,0.4,0,0.6,0c-0.1-5.1,1.7-9.5,3.5-12.8c0.1-0.4,0.2-0.9,0.3-1.3c0.2-0.1,0.4-0.2,0.6-0.3
		c0.1-0.4,0.2-0.9,0.3-1.3c0.1,0,0.2,0,0.3,0c0.1-0.3,0.2-0.6,0.3-1c0.2-0.1,0.4-0.2,0.6-0.3c0-0.2,0-0.4,0-0.6
		c0.6-0.5,1.3-1.1,1.9-1.6c0-0.2,0-0.4,0-0.6c0.2-0.1,0.4-0.2,0.6-0.3c0-0.1,0-0.2,0-0.3c0.3-0.2,0.6-0.4,1-0.6c0-1.8,0-3.6,0-5.5
		c-0.6-0.6-0.4-3-0.3-4.2c0.3-3.3,0.4-7.7,1.3-10.6c0.3-2,0.6-4.1,1-6.1c1-2.9,1.9-5.8,2.9-8.7c0.1,0,0.2,0,0.3,0
		c0.1-0.4,0.2-0.9,0.3-1.3c0.1,0,0.2,0,0.3,0c0-0.3,0-0.6,0-1c0.1,0,0.2,0,0.3,0c0-0.2,0-0.4,0-0.6c0.1,0,0.2,0,0.3,0
		c0-0.2,0-0.4,0-0.6c0.2-0.1,0.4-0.2,0.6-0.3c0-0.3,0-0.6,0-1c0.2-0.1,0.4-0.2,0.6-0.3c0.2-0.6,0.4-1.3,0.6-1.9
		c0.2-0.1,0.4-0.2,0.6-0.3c0.1-0.4,0.2-0.9,0.3-1.3c0.2-0.1,0.4-0.2,0.6-0.3c0-0.2,0-0.4,0-0.6c0.1,0,0.2,0,0.3,0
		c0.1-0.3,0.2-0.6,0.3-1c0.2-0.1,0.4-0.2,0.6-0.3c0-0.2,0-0.4,0-0.6c0.3-0.2,0.6-0.4,1-0.6c0-0.2,0-0.4,0-0.6
		c0.5-0.4,1.1-0.9,1.6-1.3c0-0.2,0-0.4,0-0.6c0.2-0.1,0.4-0.2,0.6-0.3c0.7-0.7,1.6-1.5,1.9-2.6c0.2,0,0.4,0,0.6,0
		c0.9-1,1.7-1.9,2.6-2.9c0.2,0,0.4,0,0.6,0c0.2-0.3,0.4-0.6,0.6-1c0.2,0,0.4,0,0.6,0c0.2-0.3,0.4-0.6,0.6-1c0.2,0,0.4,0,0.6,0
		c1.4-0.9,1.9-2.1,4.2-2.2C63.8,2.2,65,3,65.5,3.3c0.2,0,0.4,0,0.6,0c0.1,0.2,0.2,0.4,0.3,0.6c0.3,0.1,0.6,0.2,1,0.3
		c0.2,0.3,0.4,0.6,0.6,1c0.2,0,0.4,0,0.6,0c0.4,0.5,0.9,1.1,1.3,1.6c0.2,0,0.4,0,0.6,0c0.3,0.4,0.6,0.9,1,1.3
		c0.9,0.7,1.7,1.5,2.6,2.2c0,0.2,0,0.4,0,0.6c0.6,0.5,1.3,1.1,1.9,1.6c4.3,5.9,7.6,12.4,10.3,19.9c0,0.4,0,0.9,0,1.3
		c0.1,0,0.2,0,0.3,0c0,0.4,0,0.9,0,1.3c0.1,0,0.2,0,0.3,0c0,0.4,0,0.9,0,1.3c0.1,0,0.2,0,0.3,0c0,0.4,0,0.9,0,1.3c0.1,0,0.2,0,0.3,0
		c0,0.5,0,1.1,0,1.6c0.1,0,0.2,0,0.3,0c0,0.5,0,1.1,0,1.6c0.1,0,0.2,0,0.3,0c0,0.6,0,1.3,0,1.9c0.1,0,0.2,0,0.3,0c0,1,0,1.9,0,2.9
		c0.1,0,0.2,0,0.3,0c0,1.2,0,2.4,0,3.5c1,3.4,0,8.7,0,12.2c1,0.9,1.9,1.7,2.9,2.6c0,0.2,0,0.4,0,0.6c0.3,0.2,0.6,0.4,1,0.6
		c0,0.2,0,0.4,0,0.6c0.3,0.2,0.6,0.4,1,0.6c0,0.2,0,0.4,0,0.6c0.2,0.1,0.4,0.2,0.6,0.3c0.2,0.6,0.4,1.3,0.6,1.9
		C97.5,74.3,98.8,78.8,98.8,86.2z"/>
	<path class="st1" d="M32.7,81.7c2,0,3.6-0.5,5.1-1c4.7-0.9,9.4-1.7,14.1-2.6c0.3,2.8,2.3,4.3,3.9,5.8c0.2,0.3,0.4,0.6,0.6,1
		c0.2,0,0.4,0,0.6,0c0,0.1,0,0.2,0,0.3c0.4,0.1,0.9,0.2,1.3,0.3c0,0.1,0,0.2,0,0.3c0.6,0.1,1.3,0.2,1.9,0.3c0,0.1,0,0.2,0,0.3
		c2.1-0.1,4.3-0.2,6.4-0.3c0-0.1,0-0.2,0-0.3c0.6-0.2,1.3-0.4,1.9-0.6c0-0.1,0-0.2,0-0.3c0.2,0,0.4,0,0.6,0c0-0.1,0-0.2,0-0.3
		c0.8-0.6,1.2-1.3,2.2-1.6c0.5-1.9,2-2.3,2.2-4.5c1.8,0,3.4,0.5,4.8,1c1.6,0.2,3.2,0.4,4.8,0.6c0,0.1,0,0.2,0,0.3
		c3.2,0.5,6.4,1.1,9.6,1.6c0.1-5.3-1.4-9.5-3.2-12.8c-0.1-0.4-0.2-0.9-0.3-1.3c-0.2-0.1-0.4-0.2-0.6-0.3c-0.1-0.4-0.2-0.9-0.3-1.3
		c-0.3-0.2-0.6-0.4-1-0.6c0-0.2,0-0.4,0-0.6c-0.3-0.2-0.6-0.4-1-0.6c-0.5-0.6-1.1-1.3-1.6-1.9c-0.3-0.2-0.6-0.4-1-0.6
		c0-0.7,0-1.5,0-2.2c0.7-0.7,0.3-3.2,0.3-4.5c0-4.4,0.1-8.5-1-11.9c0-0.5,0-1.1,0-1.6c-0.1,0-0.2,0-0.3,0c0-0.5,0-1.1,0-1.6
		c-0.1,0-0.2,0-0.3,0c-0.1-0.9-0.2-1.7-0.3-2.6c-0.1,0-0.2,0-0.3,0c0-0.3,0-0.6,0-1c-0.1,0-0.2,0-0.3,0c0-0.4,0-0.9,0-1.3
		c-1.4-3.3-2.8-6.6-4.2-10c-0.2-0.1-0.4-0.2-0.6-0.3c-0.1-0.4-0.2-0.9-0.3-1.3c-0.2-0.1-0.4-0.2-0.6-0.3c-0.1-0.4-0.2-0.9-0.3-1.3
		c-0.1,0-0.2,0-0.3,0c-0.1-0.3-0.2-0.6-0.3-1c-0.2-0.1-0.4-0.2-0.6-0.3c0-0.2,0-0.4,0-0.6c-0.2-0.1-0.4-0.2-0.6-0.3
		c-0.1-0.3-0.2-0.6-0.3-1c-0.3-0.2-0.6-0.4-1-0.6c0-0.2,0-0.4,0-0.6c-0.8-0.6-1.5-1.3-2.2-1.9c0-0.2,0-0.4,0-0.6c-0.1,0-0.2,0-0.3,0
		c-0.2-0.3-0.4-0.6-0.6-1c-0.2,0-0.4,0-0.6,0c-0.5-0.6-1.1-1.3-1.6-1.9c-0.2,0-0.4,0-0.6,0c-0.3-0.4-0.6-0.9-1-1.3
		c-0.2,0-0.4,0-0.6,0c0-0.1,0-0.2,0-0.3c-0.2,0-0.4,0-0.6,0c-0.1-0.2-0.2-0.4-0.3-0.6c-0.2,0-0.4,0-0.6,0c0-0.1,0-0.2,0-0.3
		c-0.6,0.2-0.3,0-0.6,0.3c-0.7,0.2-0.8,0.3-1.3,0.6c0,0.1,0,0.2,0,0.3c-0.3,0.1-0.6,0.2-1,0.3c-0.1,0.2-0.2,0.4-0.3,0.6
		c-0.2,0-0.4,0-0.6,0c-0.4,0.5-0.9,1.1-1.3,1.6c-0.2,0-0.4,0-0.6,0c-0.2,0.3-0.4,0.6-0.6,1c-0.7,0.6-1.5,1.3-2.2,1.9
		c0,0.2,0,0.4,0,0.6c-0.5,0.4-1.1,0.9-1.6,1.3c0,0.2,0,0.4,0,0.6c-0.3,0.2-0.6,0.4-1,0.6c-0.1,0.3-0.2,0.6-0.3,1
		c-0.2,0.1-0.4,0.2-0.6,0.3c0,0.2,0,0.4,0,0.6c-0.2,0.1-0.4,0.2-0.6,0.3c-0.1,0.3-0.2,0.6-0.3,1c-0.1,0-0.2,0-0.3,0
		c-0.1,0.4-0.2,0.9-0.3,1.3c-0.2,0.1-0.4,0.2-0.6,0.3c-0.1,0.4-0.2,0.9-0.3,1.3c-0.2,0.1-0.4,0.2-0.6,0.3c0,0.3,0,0.6,0,1
		c-0.1,0-0.2,0-0.3,0c0,0.2,0,0.4,0,0.6c-0.1,0-0.2,0-0.3,0c-0.2,0.6-0.4,1.3-0.6,1.9c-0.1,0-0.2,0-0.3,0c-0.1,0.5-0.2,1.1-0.3,1.6
		c-0.1,0-0.2,0-0.3,0c0,0.2,0,0.4,0,0.6c-0.1,0-0.2,0-0.3,0c-0.9,3-1.7,6-2.6,9c-0.1,1.4-0.2,2.8-0.3,4.2C41,49.2,41.8,56.5,42,61.5
		C36.9,64.5,32.8,73.6,32.7,81.7z"/>
	<path class="st0" d="M61.3,30c1.6,0.1,3.2,0.2,4.8,0.3c4,1.4,9.4,6.6,7.4,12.8c-0.1,0.8-0.2,1.5-0.3,2.2c-0.1,0-0.2,0-0.3,0
		c-0.1,0.4-0.2,0.9-0.3,1.3c-0.2,0.1-0.4,0.2-0.6,0.3c0,0.2,0,0.4,0,0.6c-0.3,0.2-0.6,0.4-1,0.6c0,0.2,0,0.4,0,0.6
		c-0.3,0.1-0.6,0.2-1,0.3c-0.2,0.3-0.4,0.6-0.6,1c-0.2,0-0.4,0-0.6,0c-0.1,0.2-0.2,0.4-0.3,0.6c-0.3,0-0.6,0-1,0c0,0.1,0,0.2,0,0.3
		c-0.2,0-0.4,0-0.6,0c0,0.1,0,0.2,0,0.3c-0.9,0.1-1.7,0.2-2.6,0.3c0,0.1,0,0.2,0,0.3c-1.4,0.4-3.3-0.4-4.2-0.6c-0.4,0-0.9,0-1.3,0
		c0-0.1,0-0.2,0-0.3c-0.4-0.1-0.9-0.2-1.3-0.3c0-0.1,0-0.2,0-0.3c-0.2,0-0.4,0-0.6,0c-2.4-1.5-5.9-6.5-4.8-10.3
		c0.1-1.1,0.2-2.1,0.3-3.2c0.1,0,0.2,0,0.3,0c0.2-0.6,0.4-1.3,0.6-1.9c0.2-0.1,0.4-0.2,0.6-0.3c0-0.2,0-0.4,0-0.6
		c0.5-0.4,1.1-0.9,1.6-1.3c0.2-0.3,0.4-0.6,0.6-1c0.4-0.1,0.9-0.2,1.3-0.3c0.1-0.2,0.2-0.4,0.3-0.6c0.3,0,0.6,0,1,0
		c0-0.1,0-0.2,0-0.3C59.5,30.3,60.6,30.5,61.3,30z"/>
	<path class="st2" d="M61.9,34.5c0,0.1,0,0.2,0,0.3c-0.4,0-0.9,0-1.3,0c0,0.1,0,0.2,0,0.3c-0.4,0.1-0.9,0.2-1.3,0.3
		c0,0.1,0,0.2,0,0.3c-0.2,0-0.4,0-0.6,0c0,0.1,0,0.2,0,0.3c-0.5,0.4-1.1,0.9-1.6,1.3c-0.4,0.5,0,0.7-0.6,1.3c-0.1,1.5-0.5,2.2,0,3.5
		c0,0.4,0,0.9,0,1.3c0.1,0,0.2,0,0.3,0c0.3,1.3,1.1,1.9,1.9,2.6c0,0.1,0,0.2,0,0.3c0.2,0,0.4,0,0.6,0c0,0.1,0,0.2,0,0.3
		c0.4,0.3,0.6,0.2,1,0.6c0.7,0,2.8,0.3,2.9,0.3c0-0.1,0-0.2,0-0.3c0.8-0.1,1.5-0.2,2.3-0.3c0-0.1,0-0.2,0-0.3c0.2,0,0.4,0,0.6,0
		c0.1-0.2,0.2-0.4,0.3-0.6c2.4-1.6,2.7-3,2.6-7.1c-0.5-0.9-1.1-1.7-1.6-2.6c-0.7-0.7-1.9-0.8-2.6-1.6C63.8,34.7,62.9,34.6,61.9,34.5
		z"/>
	<path class="st0" d="M61.3,97.1c2.3-0.1,4.1,0.1,5.5,1c0.1,0.2,0.2,0.4,0.3,0.6c0.2,0,0.4,0,0.6,0c0.3,0.4,0.6,0.9,1,1.3
		c0.1,0,0.2,0,0.3,0c0,0.2,0,0.4,0,0.6c0.2,0.1,0.4,0.2,0.6,0.3c0,0.2,0,0.4,0,0.6c0.2,0.1,0.4,0.2,0.6,0.3c0,0.3,0,0.6,0,1
		c0.1,0,0.2,0,0.3,0c0,0.2,0,0.4,0,0.6c0.1,0,0.2,0,0.3,0c0.3,0.8,0.7,5,0.3,6.1c-0.1,0-0.2,0-0.3,0c0,0.4,0,0.9,0,1.3
		c-0.1,0-0.2,0-0.3,0c0,0.3,0,0.6,0,1c-0.1,0-0.2,0-0.3,0c0,0.3,0,0.6,0,1c-0.1,0-0.2,0-0.3,0c0,0.3,0,0.6,0,1c-0.1,0-0.2,0-0.3,0
		c-0.1,0.4-0.2,0.9-0.3,1.3c-0.1,0-0.2,0-0.3,0c0,0.3,0,0.6,0,1c-0.2,0.1-0.4,0.2-0.6,0.3c0,0.3,0,0.6,0,1c-0.2,0.1-0.4,0.2-0.6,0.3
		c0,0.2,0,0.4,0,0.6c-0.1,0-0.2,0-0.3,0c0,0.2,0,0.4,0,0.6c-0.1,0-0.2,0-0.3,0c-0.1,0.4-0.2,0.9-0.3,1.3c-0.2,0.1-0.4,0.2-0.6,0.3
		c0,0.2,0,0.4,0,0.6c-0.1,0-0.2,0-0.3,0c0,0.2,0,0.4,0,0.6c-0.3,0.2-0.6,0.4-1,0.6c-0.1,0.3-0.2,0.6-0.3,1c-0.1,0-0.2,0-0.3,0
		c0,0.2,0,0.4,0,0.6c-0.1,0-0.2,0-0.3,0c-0.1,0.3-0.2,0.6-0.3,1c-0.2,0.1-0.4,0.2-0.6,0.3c0,0.2,0,0.4,0,0.6c-0.1,0-0.2,0-0.3,0
		c0-0.1,0-0.2,0-0.3c-0.8-0.7-1-1.7-1.6-2.6c-0.2-0.1-0.4-0.2-0.6-0.3c-0.1-0.4-0.2-0.9-0.3-1.3c-0.2-0.1-0.4-0.2-0.6-0.3
		c0-0.2,0-0.4,0-0.6c-0.1,0-0.2,0-0.3,0c0-0.2,0-0.4,0-0.6c-0.1,0-0.2,0-0.3,0c0-0.2,0-0.4,0-0.6c-0.1,0-0.2,0-0.3,0
		c0-0.2,0-0.4,0-0.6c-0.1,0-0.2,0-0.3,0c-0.1-0.4-0.2-0.9-0.3-1.3c-0.2-0.1-0.4-0.2-0.6-0.3c-0.1-0.5-0.2-1.1-0.3-1.6
		c-0.1,0-0.2,0-0.3,0c0-0.2,0-0.4,0-0.6c-0.1,0-0.2,0-0.3,0c-0.1-0.4-0.2-0.9-0.3-1.3c-0.1,0-0.2,0-0.3,0c0-0.3,0-0.6,0-1
		c-0.1,0-0.2,0-0.3,0c-0.7-1.8-1.4-6.1-0.6-8.3c0.1,0,0.2,0,0.3,0c0-0.4,0-0.9,0-1.3c0.1,0,0.2,0,0.3,0c0.1-0.4,0.2-0.9,0.3-1.3
		c0.2-0.1,0.4-0.2,0.6-0.3c0-0.2,0-0.4,0-0.6c0.6-0.5,1.3-1.1,1.9-1.6c0.2-0.3,0.4-0.6,0.6-1c0.5-0.4,0.7,0,1.3-0.6
		c0.4,0,0.9,0,1.3,0C61.3,97.3,61.3,97.2,61.3,97.1z"/>
	<path class="st2" d="M63.2,118c0.1-0.3,0.2-0.6,0.3-1c0.1,0,0.2,0,0.3,0c0-0.2,0-0.4,0-0.6c0.1,0,0.2,0,0.3,0
		c0.1-0.4,0.2-0.9,0.3-1.3c0.1,0,0.2,0,0.3,0c0-0.2,0-0.4,0-0.6c0.1,0,0.2,0,0.3,0c0.2-0.6,0.4-1.3,0.6-1.9c0.1,0,0.2,0,0.3,0
		c0.1-0.6,0.2-1.3,0.3-1.9c0.1,0,0.2,0,0.3,0c0-0.4,0-0.9,0-1.3c0.1-0.4,0.6-2,0.3-2.9c-0.1,0-0.2,0-0.3,0c0-0.3,0-0.6,0-1
		c-0.1,0-0.2,0-0.3,0c0-0.2,0-0.4,0-0.6c-0.1,0-0.2,0-0.3,0c-0.1-0.4-0.2-0.9-0.3-1.3c-0.4-0.5-2.6-1.7-3.9-1.3c0,0.1,0,0.2,0,0.3
		c-0.3,0-0.6,0-1,0c-0.3,0.4-0.6,0.9-1,1.3c-0.1,0-0.2,0-0.3,0c0,0.2,0,0.4,0,0.6c-0.1,0-0.2,0-0.3,0c-0.1,0.4-0.2,0.9-0.3,1.3
		c-0.1,0-0.2,0-0.3,0c-0.8,2.4,1.3,7.4,1.9,8.7c0.1,0,0.2,0,0.3,0c0,0.2,0,0.4,0,0.6c0.1,0,0.2,0,0.3,0c0.3,0.5,0.9,2.7,1.3,2.9
		C62.8,118,63,118,63.2,118z"/>
</g>
</svg>
