<?xml version="1.0" encoding="utf-8"?>
<!-- Generator: Adobe Illustrator 22.0.1, SVG Export Plug-In . SVG Version: 6.00 Build 0)  -->
<svg version="1.1" id="图层_1" xmlns="http://www.w3.org/2000/svg" xmlns:xlink="http://www.w3.org/1999/xlink" x="0px" y="0px"
	 width="80px" height="80px" viewBox="0 0 128 128" style="enable-background:new 0 0 128 128;" xml:space="preserve">
<style type="text/css">
	.st0{fill:#245AB7;}
	.st1{fill:#FFFFFF;}
</style>
<circle class="st0" cx="65.3" cy="63.1" r="59.8"/>
<g>
	<path class="st1" d="M94.5,34.4c-4.1,17.1-8.2,34.1-12.2,51.2c-8.5-2.7-17-5.3-25.6-8c8-9.5,15.9-19,23.9-28.5
		C70,58,59.4,66.9,48.8,75.8c-7.1-2.5-14.3-5.1-21.4-7.6c0,0,0-0.1,0-0.1C49.7,56.9,72.1,45.6,94.5,34.4z"/>
	<path class="st1" d="M57.1,83.4c2.5,0.9,5.1,1.9,7.6,2.8c-2.6,3.9-5.2,7.9-7.8,11.9C57,93.1,57,88.3,57.1,83.4z"/>
</g>
</svg>
