<?xml version="1.0" encoding="utf-8"?>
<!-- Generator: Adobe Illustrator 22.0.1, SVG Export Plug-In . SVG Version: 6.00 Build 0)  -->
<svg version="1.1" id="图层_1" xmlns="http://www.w3.org/2000/svg" xmlns:xlink="http://www.w3.org/1999/xlink" x="0px" y="0px"
	 width="80px" height="80px" viewBox="0 0 128 128" style="enable-background:new 0 0 128 128;" xml:space="preserve">
<style type="text/css">
	.st0{fill:#245AB7;}
</style>
<path class="st0" d="M70.3,104c0,3.8-3.1,6.9-6.9,6.9h-0.7c-3.8,0-6.9-3.1-6.9-6.9V25.4c0-3.8,3.1-6.9,6.9-6.9h0.7
	c3.8,0,6.9,3.1,6.9,6.9V104z"/>
<path class="st0" d="M45.2,116.4c0,3.8-3.1,6.9-6.9,6.9h-0.7c-3.8,0-6.9-3.1-6.9-6.9V60.8c0-3.8,3.1-6.9,6.9-6.9h0.7
	c3.8,0,6.9,3.1,6.9,6.9V116.4z"/>
<path class="st0" d="M95.6,68.9c0,3.8-3.1,6.9-6.9,6.9h-0.7c-3.8,0-6.9-3.1-6.9-6.9V13.4c0-3.8,3.1-6.9,6.9-6.9h0.7
	c3.8,0,6.9,3.1,6.9,6.9L95.6,68.9L95.6,68.9z"/>
<path class="st0" d="M20.1,96.7c0,3.8-3.1,6.9-6.9,6.9h-0.7c-3.8,0-6.9-3.1-6.9-6.9V82.8c0-3.8,3.1-6.9,6.9-6.9h0.7
	c3.8,0,6.9,3.1,6.9,6.9V96.7z"/>
<path class="st0" d="M120.8,46c0,3.8-3.1,6.9-6.9,6.9h-0.7c-3.8,0-6.9-3.1-6.9-6.9V32.1c0-3.8,3.1-6.9,6.9-6.9h0.7
	c3.8,0,6.9,3.1,6.9,6.9V46z"/>
</svg>
