<?xml version="1.0" encoding="utf-8"?>
<!-- Generator: Adobe Illustrator 16.0.0, SVG Export Plug-In . SVG Version: 6.00 Build 0)  -->
<!DOCTYPE svg PUBLIC "-//W3C//DTD SVG 1.1 Tiny//EN" "http://www.w3.org/Graphics/SVG/1.1/DTD/svg11-tiny.dtd">
<svg version="1.1" baseProfile="tiny" id="图层_1"
	 xmlns="http://www.w3.org/2000/svg" xmlns:xlink="http://www.w3.org/1999/xlink" x="0px" y="0px" width="300px" height="70px"
	 viewBox="0 0 300 70" xml:space="preserve">
<path fill="#FFFFFF" d="M44.367,5.352l-2.138,8.557l-16.085,4.231c0,0-3.045,0.839-5.727,1.137
	c-2.685,0.299-4.199,3.008-4.181,6.459c0.018,3.45,0,22.343,0,22.343s1.125,2.391,1.492,2.716c0.368,0.325,1.45,1.365,6.274,2.035
	c4.821,0.667,9.027,2.162,9.027,2.162l3.733,0.922l5.467,1.711l2.446,8.542H17.474c0,0-14.733-1.271-14.896-13.128
	C2.413,41.18,2.389,19.33,2.389,19.33S4.214,5.839,18.616,5.445C33.02,5.049,44.367,5.352,44.367,5.352z"/>
<path fill="#FFFFFF" d="M57.978,66.057l2.138-8.56l16.085-4.229c0,0,3.043-0.844,5.728-1.14c2.685-0.298,4.2-3.007,4.184-6.456
	c-0.019-3.453,0-22.344,0-22.344s-1.128-2.388-1.494-2.715c-0.368-0.327-1.453-1.369-6.274-2.037
	c-4.819-0.667-9.027-2.158-9.027-2.158l-3.734-0.927l-5.467-1.708L57.672,5.24H84.87c0,0,14.734,1.269,14.901,13.128
	c0.159,11.861,0.188,33.71,0.188,33.71S98.133,65.567,83.73,65.961C69.329,66.357,57.978,66.057,57.978,66.057z"/>
<rect x="34.726" y="32.853" fill="#FFFFFF" width="33.113" height="5.699"/>
<g>
	<path fill="#FFFFFF" d="M102.976,33.555l9.019-21.565h1.734l9.018,21.565h-2.285l-2.788-6.764h-9.685l-2.773,6.764H102.976z
		 M108.435,25.146h8.752l-4.317-10.665L108.435,25.146z"/>
	<path fill="#FFFFFF" d="M125.389,30.662V11.38h2.062v18.585c0,0.583,0.161,1.042,0.483,1.378c0.318,0.335,0.778,0.504,1.372,0.504
		c0.228,0,0.491-0.03,0.795-0.088c0.3-0.06,0.581-0.139,0.837-0.239l0.372,1.661c-0.386,0.16-0.86,0.289-1.416,0.393
		c-0.561,0.104-1.042,0.156-1.446,0.156c-0.951,0-1.697-0.267-2.24-0.802C125.663,32.394,125.389,31.641,125.389,30.662z"/>
	<path fill="#FFFFFF" d="M133.309,14.421V11.38h2.062v3.042H133.309z M133.309,33.555V17.729h2.062v15.826H133.309z"/>
	<path fill="#FFFFFF" d="M139.806,33.555V11.38h2.062v9.656c0.713-1.079,1.563-1.943,2.552-2.595
		c0.989-0.654,2.15-0.979,3.485-0.979c1.095,0,2.086,0.233,2.976,0.697c0.89,0.463,1.641,1.084,2.258,1.861
		c0.616,0.776,1.091,1.655,1.428,2.639c0.335,0.984,0.503,1.996,0.503,3.033c0,1.117-0.191,2.17-0.576,3.159
		c-0.386,0.989-0.916,1.852-1.592,2.589c-0.674,0.737-1.475,1.323-2.397,1.759c-0.923,0.435-1.907,0.652-2.953,0.652
		c-1.239,0-2.387-0.313-3.442-0.934c-1.055-0.624-1.88-1.435-2.476-2.433v3.071H139.806z M141.866,28.141
		c0.079,0.543,0.297,1.055,0.653,1.536c0.356,0.48,0.786,0.893,1.291,1.239s1.04,0.621,1.608,0.823
		c0.568,0.203,1.116,0.304,1.641,0.304c0.871,0,1.662-0.177,2.381-0.533c0.715-0.357,1.333-0.834,1.852-1.432
		c0.521-0.598,0.926-1.277,1.217-2.039c0.292-0.761,0.438-1.543,0.438-2.345c0-0.83-0.137-1.631-0.407-2.402
		c-0.272-0.771-0.655-1.457-1.15-2.054c-0.494-0.598-1.088-1.075-1.779-1.431c-0.692-0.356-1.454-0.533-2.285-0.533
		c-0.623,0-1.208,0.106-1.759,0.319c-0.547,0.212-1.055,0.501-1.519,0.866c-0.464,0.367-0.884,0.787-1.26,1.261
		c-0.376,0.475-0.682,0.979-0.92,1.512v4.908H141.866z"/>
	<path fill="#FFFFFF" d="M157.261,29.039c0-0.733,0.161-1.399,0.48-1.999c0.322-0.599,0.778-1.111,1.366-1.537
		c0.589-0.425,1.294-0.756,2.114-0.987c0.821-0.233,1.725-0.349,2.713-0.349c0.793,0,1.603,0.071,2.433,0.214
		c0.831,0.144,1.569,0.344,2.212,0.601v-1.424c0-1.394-0.398-2.501-1.196-3.323c-0.796-0.821-1.874-1.23-3.24-1.23
		c-0.851,0-1.694,0.164-2.535,0.49c-0.84,0.325-1.697,0.791-2.566,1.394l-0.729-1.366c1.028-0.692,2.03-1.209,3.005-1.549
		c0.972-0.341,1.989-0.512,3.047-0.512c1.925,0,3.451,0.557,4.581,1.669c1.129,1.111,1.695,2.647,1.695,4.604v7.162
		c0,0.565,0.247,0.847,0.741,0.847v1.81c-0.163,0.02-0.316,0.036-0.46,0.043c-0.146,0.01-0.271,0.015-0.371,0.015
		c-0.401,0-0.771-0.12-1.103-0.361c-0.333-0.241-0.52-0.603-0.559-1.085l-0.059-1.238c-0.692,0.924-1.599,1.644-2.723,2.154
		c-1.121,0.512-2.262,0.768-3.416,0.768c-0.812,0-1.552-0.126-2.219-0.378c-0.666-0.25-1.237-0.599-1.713-1.044
		c-0.476-0.446-0.843-0.96-1.105-1.547C157.393,30.296,157.261,29.682,157.261,29.039z M159.265,28.861
		c0,0.427,0.079,0.844,0.237,1.246c0.158,0.403,0.405,0.77,0.741,1.097c0.337,0.327,0.745,0.594,1.229,0.798
		c0.484,0.204,1.064,0.305,1.735,0.305c0.909,0,1.814-0.199,2.714-0.596c0.9-0.396,1.615-0.945,2.149-1.64
		c0.139-0.179,0.258-0.375,0.356-0.589c0.101-0.213,0.148-0.411,0.148-0.589v-2.594c-0.692-0.266-1.411-0.472-2.156-0.616
		c-0.748-0.143-1.472-0.216-2.174-0.216c-1.483,0-2.684,0.3-3.604,0.899S159.265,27.8,159.265,28.861z"/>
	<path fill="#FFFFFF" d="M175.149,33.555V11.38h2.063v9.656c0.712-1.079,1.562-1.943,2.551-2.595
		c0.988-0.654,2.15-0.979,3.485-0.979c1.096,0,2.086,0.233,2.975,0.697c0.89,0.463,1.644,1.084,2.258,1.861
		c0.616,0.776,1.093,1.655,1.431,2.639c0.332,0.984,0.503,1.996,0.503,3.033c0,1.117-0.193,2.17-0.578,3.159
		c-0.386,0.989-0.916,1.852-1.592,2.589c-0.674,0.737-1.474,1.323-2.397,1.759c-0.923,0.435-1.907,0.652-2.953,0.652
		c-1.239,0-2.387-0.313-3.442-0.934c-1.055-0.624-1.881-1.435-2.476-2.433v3.071H175.149z M177.212,28.141
		c0.078,0.543,0.296,1.055,0.652,1.536c0.355,0.48,0.787,0.893,1.291,1.239c0.505,0.346,1.039,0.621,1.609,0.823
		c0.568,0.203,1.113,0.304,1.64,0.304c0.871,0,1.663-0.177,2.381-0.533c0.715-0.357,1.335-0.834,1.853-1.432
		c0.522-0.598,0.926-1.277,1.217-2.039c0.293-0.761,0.439-1.543,0.439-2.345c0-0.83-0.137-1.631-0.408-2.402
		c-0.272-0.771-0.654-1.457-1.148-2.054c-0.495-0.598-1.088-1.075-1.78-1.431s-1.454-0.533-2.285-0.533
		c-0.624,0-1.209,0.106-1.759,0.319c-0.548,0.212-1.056,0.501-1.52,0.866c-0.465,0.367-0.884,0.787-1.259,1.261
		c-0.378,0.475-0.683,0.979-0.92,1.512v4.908H177.212z"/>
	<path fill="#FFFFFF" d="M192.606,29.039c0-0.733,0.162-1.399,0.482-1.999c0.319-0.599,0.775-1.111,1.363-1.537
		c0.591-0.425,1.296-0.756,2.116-0.987c0.819-0.233,1.725-0.349,2.713-0.349c0.791,0,1.603,0.071,2.433,0.214
		c0.83,0.144,1.566,0.344,2.21,0.601v-1.424c0-1.394-0.397-2.501-1.194-3.323s-1.876-1.23-3.24-1.23
		c-0.851,0-1.695,0.164-2.537,0.49c-0.84,0.325-1.695,0.791-2.565,1.394l-0.729-1.366c1.029-0.692,2.029-1.209,3.004-1.549
		c0.972-0.341,1.99-0.512,3.048-0.512c1.925,0,3.451,0.557,4.581,1.669c1.128,1.111,1.695,2.647,1.695,4.604v7.162
		c0,0.565,0.244,0.847,0.74,0.847v1.81c-0.164,0.02-0.316,0.036-0.46,0.043c-0.146,0.01-0.271,0.015-0.372,0.015
		c-0.4,0-0.77-0.12-1.103-0.361c-0.331-0.241-0.519-0.603-0.556-1.085l-0.061-1.238c-0.692,0.924-1.6,1.644-2.723,2.154
		c-1.121,0.512-2.26,0.768-3.417,0.768c-0.81,0-1.55-0.126-2.218-0.378c-0.666-0.25-1.237-0.599-1.712-1.044
		c-0.476-0.446-0.843-0.96-1.105-1.547C192.737,30.296,192.606,29.682,192.606,29.039z M194.607,28.861
		c0,0.427,0.081,0.844,0.238,1.246c0.161,0.403,0.406,0.77,0.74,1.097c0.337,0.327,0.747,0.594,1.231,0.798
		c0.484,0.204,1.063,0.305,1.736,0.305c0.908,0,1.813-0.199,2.713-0.596c0.898-0.396,1.618-0.945,2.149-1.64
		c0.139-0.179,0.256-0.375,0.356-0.589c0.101-0.213,0.147-0.411,0.147-0.589v-2.594c-0.689-0.266-1.412-0.472-2.157-0.616
		c-0.746-0.143-1.469-0.216-2.171-0.216c-1.483,0-2.688,0.3-3.607,0.899C195.066,26.966,194.607,27.8,194.607,28.861z"/>
	<path fill="#FFFFFF" d="M217.377,22.634c0-1.298,0.229-2.589,0.683-3.875c0.453-1.286,1.116-2.436,1.987-3.451
		c0.871-1.014,1.942-1.841,3.218-2.479c1.277-0.638,2.724-0.956,4.346-0.956c1.929,0,3.57,0.433,4.925,1.302
		c1.354,0.869,2.367,2,3.043,3.391l-1.708,1.046c-0.346-0.717-0.762-1.319-1.246-1.809c-0.484-0.488-1.012-0.886-1.579-1.195
		c-0.57-0.309-1.157-0.528-1.767-0.659c-0.606-0.13-1.203-0.193-1.786-0.193c-1.297,0-2.439,0.263-3.435,0.79
		c-0.992,0.528-1.829,1.217-2.505,2.072c-0.679,0.854-1.19,1.814-1.536,2.882c-0.347,1.068-0.521,2.153-0.521,3.256
		c0,1.198,0.207,2.345,0.623,3.44c0.414,1.096,0.985,2.064,1.707,2.906s1.574,1.512,2.558,2.006c0.983,0.496,2.05,0.743,3.197,0.743
		c0.604,0,1.229-0.074,1.869-0.223c0.642-0.148,1.262-0.39,1.861-0.728c0.6-0.337,1.151-0.752,1.653-1.249
		c0.507-0.496,0.931-1.1,1.277-1.814l1.764,0.906c-0.346,0.809-0.834,1.519-1.46,2.133c-0.63,0.616-1.327,1.134-2.098,1.558
		c-0.772,0.424-1.588,0.746-2.448,0.967c-0.859,0.221-1.706,0.333-2.536,0.333c-1.482,0-2.843-0.324-4.07-0.97
		c-1.23-0.646-2.296-1.492-3.192-2.533c-0.895-1.041-1.587-2.224-2.082-3.549C217.624,25.356,217.377,24.006,217.377,22.634z"/>
	<path fill="#FFFFFF" d="M239.284,30.662V11.38h2.062v18.585c0,0.583,0.161,1.042,0.482,1.378c0.32,0.335,0.78,0.504,1.373,0.504
		c0.228,0,0.49-0.03,0.794-0.088c0.3-0.06,0.58-0.139,0.838-0.239l0.37,1.661c-0.386,0.16-0.858,0.289-1.416,0.393
		c-0.561,0.104-1.041,0.156-1.447,0.156c-0.948,0-1.693-0.267-2.236-0.802C239.559,32.394,239.284,31.641,239.284,30.662z"/>
	<path fill="#FFFFFF" d="M246.135,25.694c0-1.117,0.197-2.174,0.594-3.166c0.397-0.992,0.945-1.863,1.639-2.611
		c0.699-0.745,1.529-1.341,2.493-1.787c0.966-0.446,2.011-0.668,3.139-0.668c1.134,0,2.182,0.223,3.145,0.668
		c0.962,0.446,1.793,1.042,2.487,1.787c0.696,0.746,1.24,1.617,1.636,2.611c0.395,0.994,0.593,2.049,0.593,3.166
		c0,1.097-0.198,2.142-0.593,3.128c-0.394,0.989-0.939,1.856-1.636,2.603c-0.694,0.745-1.523,1.336-2.487,1.772
		c-0.963,0.436-2.011,0.653-3.145,0.653c-1.158,0-2.217-0.217-3.177-0.653c-0.956-0.436-1.785-1.027-2.484-1.772
		c-0.695-0.746-1.237-1.617-1.624-2.611S246.135,26.781,246.135,25.694z M248.258,25.723c0,0.889,0.147,1.713,0.443,2.469
		c0.298,0.756,0.702,1.424,1.218,2.003c0.514,0.579,1.119,1.032,1.817,1.357c0.695,0.326,1.441,0.49,2.23,0.49
		c0.79,0,1.535-0.169,2.229-0.505c0.7-0.336,1.312-0.793,1.841-1.373c0.53-0.579,0.944-1.25,1.245-2.016
		c0.301-0.767,0.455-1.594,0.455-2.484c0-0.87-0.151-1.696-0.455-2.477c-0.302-0.781-0.715-1.462-1.245-2.039
		c-0.528-0.578-1.139-1.037-1.822-1.372c-0.688-0.336-1.429-0.504-2.216-0.504c-0.792,0-1.536,0.168-2.232,0.504
		c-0.698,0.335-1.303,0.798-1.818,1.386c-0.514,0.59-0.924,1.273-1.229,2.054C248.414,23.998,248.258,24.833,248.258,25.723z"/>
	<path fill="#FFFFFF" d="M265.076,27.028v-9.299h2.063v8.929c0,3.579,1.225,5.374,3.669,5.383c0.604,0,1.204-0.102,1.797-0.305
		c0.597-0.202,1.139-0.494,1.636-0.878c0.494-0.385,0.941-0.842,1.335-1.369c0.396-0.528,0.715-1.123,0.952-1.784v-9.978h2.062
		v13.169c0,0.563,0.255,0.846,0.771,0.846v1.809c-0.413,0.059-0.705,0.089-0.878,0.089c-0.459,0-0.854-0.14-1.181-0.422
		c-0.328-0.282-0.494-0.633-0.494-1.056l-0.042-2.187c-0.709,1.232-1.647,2.185-2.818,2.86c-1.171,0.675-2.451,1.013-3.837,1.013
		c-1.656,0-2.912-0.57-3.761-1.713C265.5,30.993,265.076,29.293,265.076,27.028z"/>
	<path fill="#FFFFFF" d="M282.237,25.7c0-1.118,0.183-2.18,0.548-3.184c0.367-1.004,0.87-1.88,1.506-2.628
		c0.639-0.747,1.397-1.338,2.279-1.773c0.878-0.435,1.844-0.653,2.89-0.653c1.336,0,2.519,0.349,3.552,1.046
		c1.034,0.697,1.858,1.541,2.471,2.531v-9.658h2.063V30.9c0,0.563,0.242,0.845,0.727,0.845v1.81
		c-0.346,0.059-0.618,0.089-0.815,0.089c-0.504,0-0.92-0.145-1.247-0.435c-0.324-0.29-0.486-0.638-0.486-1.042v-1.669
		c-0.653,1.024-1.511,1.84-2.568,2.445c-1.059,0.606-2.165,0.908-3.322,0.908c-1.097,0-2.111-0.228-3.042-0.681
		c-0.93-0.454-1.732-1.055-2.409-1.8c-0.679-0.747-1.204-1.61-1.58-2.594C282.424,27.792,282.237,26.769,282.237,25.7z
		 M284.358,25.7c0,0.849,0.154,1.658,0.458,2.424c0.307,0.766,0.724,1.438,1.246,2.016c0.524,0.577,1.147,1.039,1.869,1.385
		c0.721,0.346,1.498,0.518,2.328,0.518c0.526,0,1.076-0.101,1.652-0.304c0.581-0.202,1.114-0.481,1.608-0.837
		c0.495-0.356,0.928-0.771,1.293-1.245c0.366-0.475,0.589-0.989,0.669-1.542v-4.877c-0.198-0.545-0.498-1.057-0.9-1.537
		c-0.397-0.481-0.846-0.905-1.342-1.27c-0.494-0.366-1.02-0.651-1.577-0.854c-0.562-0.204-1.112-0.304-1.655-0.304
		c-0.852,0-1.625,0.182-2.32,0.55c-0.699,0.366-1.289,0.848-1.773,1.447c-0.484,0.6-0.865,1.285-1.143,2.057
		C284.495,24.099,284.358,24.888,284.358,25.7z"/>
</g>
<g>
	<path fill="#FFFFFF" d="M107.389,52.913c0-0.488,0.106-0.933,0.32-1.332c0.215-0.397,0.518-0.74,0.91-1.024
		c0.392-0.286,0.862-0.504,1.409-0.659c0.546-0.156,1.15-0.233,1.808-0.233c0.528,0,1.069,0.047,1.622,0.144
		c0.553,0.098,1.045,0.229,1.473,0.399v-0.95c0-0.93-0.264-1.666-0.797-2.216c-0.532-0.549-1.25-0.82-2.16-0.82
		c-0.567,0-1.13,0.108-1.691,0.326c-0.56,0.219-1.13,0.528-1.711,0.931l-0.484-0.91c0.686-0.46,1.354-0.807,2.003-1.034
		c0.65-0.225,1.326-0.338,2.032-0.338c1.283,0,2.3,0.368,3.053,1.11c0.753,0.741,1.129,1.766,1.129,3.069v4.774
		c0,0.378,0.166,0.566,0.495,0.566v1.207c-0.106,0.014-0.209,0.023-0.306,0.03c-0.099,0.006-0.18,0.01-0.248,0.01
		c-0.268,0-0.512-0.079-0.735-0.241c-0.223-0.161-0.346-0.402-0.373-0.724l-0.039-0.827c-0.46,0.618-1.066,1.097-1.814,1.438
		c-0.748,0.344-1.509,0.513-2.28,0.513c-0.54,0-1.033-0.083-1.479-0.252c-0.444-0.166-0.825-0.398-1.142-0.694
		c-0.317-0.298-0.562-0.64-0.737-1.033C107.475,53.75,107.389,53.342,107.389,52.913z M108.724,52.795
		c0,0.284,0.052,0.561,0.159,0.831c0.105,0.267,0.27,0.511,0.494,0.731c0.225,0.219,0.498,0.396,0.82,0.53
		c0.323,0.138,0.709,0.204,1.158,0.204c0.606,0,1.21-0.132,1.81-0.395c0.599-0.266,1.078-0.63,1.435-1.094
		c0.092-0.116,0.171-0.248,0.237-0.39c0.065-0.145,0.1-0.274,0.1-0.393v-1.728c-0.461-0.177-0.942-0.315-1.439-0.411
		c-0.498-0.098-0.981-0.146-1.448-0.146c-0.989,0-1.791,0.201-2.403,0.6C109.029,51.533,108.724,52.087,108.724,52.795z"/>
	<path fill="#FFFFFF" d="M119.372,53.995V41.141h1.374v12.39c0,0.389,0.107,0.694,0.321,0.92c0.214,0.224,0.52,0.336,0.915,0.336
		c0.151,0,0.327-0.021,0.528-0.06c0.2-0.039,0.386-0.092,0.559-0.158l0.246,1.107c-0.257,0.105-0.572,0.19-0.945,0.261
		c-0.374,0.069-0.694,0.104-0.964,0.104c-0.632,0-1.13-0.177-1.493-0.533C119.549,55.152,119.372,54.647,119.372,53.995z"/>
	<path fill="#FFFFFF" d="M124.653,43.167v-2.026h1.374v2.026H124.653z M124.653,55.923V45.372h1.374v10.551H124.653z"/>
	<path fill="#FFFFFF" d="M127.768,45.372h1.435l3.905,9.263l3.61-9.263h1.314l-5.488,13.605c-0.204,0.502-0.478,0.876-0.819,1.118
		c-0.343,0.243-0.825,0.366-1.443,0.366c-0.257,0-0.487-0.02-0.692-0.059v-1.235c0.065,0.015,0.133,0.025,0.203,0.031
		c0.069,0.006,0.137,0.01,0.202,0.01c0.132,0,0.275-0.014,0.431-0.039c0.155-0.025,0.268-0.053,0.34-0.079
		c0.066-0.027,0.135-0.085,0.208-0.175c0.072-0.09,0.167-0.246,0.282-0.467c0.115-0.224,0.262-0.535,0.441-0.934
		c0.177-0.398,0.401-0.934,0.671-1.604L127.768,45.372z"/>
	<path fill="#FFFFFF" d="M139.851,51.572v-6.2h1.374v5.953c0,2.386,0.815,3.582,2.446,3.59c0.403,0,0.803-0.07,1.198-0.203
		c0.396-0.134,0.759-0.33,1.09-0.589c0.33-0.254,0.628-0.56,0.891-0.909c0.264-0.353,0.475-0.749,0.634-1.19v-6.651h1.374v8.781
		c0,0.375,0.172,0.563,0.515,0.563v1.206c-0.275,0.04-0.47,0.06-0.586,0.06c-0.307,0-0.568-0.096-0.788-0.28
		c-0.22-0.188-0.328-0.424-0.328-0.705l-0.03-1.458c-0.471,0.821-1.099,1.456-1.879,1.906c-0.781,0.452-1.633,0.676-2.558,0.676
		c-1.105,0-1.94-0.383-2.506-1.144C140.133,54.218,139.851,53.081,139.851,51.572z"/>
	<path fill="#FFFFFF" d="M151.983,55.923V45.372h1.246v2.394c0.217-0.377,0.486-0.725,0.808-1.043
		c0.319-0.318,0.673-0.596,1.063-0.826c0.391-0.229,0.803-0.405,1.241-0.524c0.436-0.12,0.894-0.177,1.37-0.177
		c0.591,0,1.086,0.106,1.482,0.32c0.397,0.215,0.719,0.52,0.961,0.91c0.244,0.391,0.419,0.872,0.527,1.438
		c0.11,0.568,0.165,1.194,0.165,1.88v6.18h-1.374V50.03c0-1.253-0.182-2.163-0.545-2.729c-0.362-0.567-0.93-0.851-1.7-0.851
		c-0.402,0-0.808,0.075-1.211,0.225c-0.405,0.148-0.786,0.355-1.14,0.626c-0.352,0.271-0.66,0.591-0.923,0.959
		c-0.264,0.367-0.461,0.771-0.594,1.206v6.457H151.983z"/>
	<path fill="#FFFFFF" d="M163.553,55.923v-2.026h1.177v2.026H163.553z"/>
	<path fill="#FFFFFF" d="M166.835,50.613c0-0.744,0.129-1.445,0.387-2.106c0.258-0.659,0.617-1.232,1.084-1.724
		c0.465-0.491,1.02-0.88,1.671-1.16c0.649-0.284,1.363-0.426,2.141-0.426c1.002,0,1.874,0.226,2.616,0.677
		c0.741,0.451,1.302,1.063,1.685,1.833l-1.345,0.426c-0.298-0.539-0.707-0.964-1.23-1.271c-0.522-0.306-1.11-0.458-1.764-0.458
		c-0.54,0-1.045,0.106-1.51,0.324c-0.466,0.219-0.869,0.513-1.213,0.886c-0.342,0.37-0.611,0.813-0.809,1.324
		c-0.197,0.512-0.297,1.069-0.297,1.675c0,0.595,0.104,1.154,0.307,1.681c0.204,0.527,0.481,0.985,0.83,1.371
		c0.351,0.387,0.757,0.689,1.222,0.915c0.467,0.224,0.961,0.335,1.489,0.335c0.337,0,0.669-0.047,1.004-0.142
		c0.335-0.096,0.642-0.228,0.925-0.396c0.283-0.168,0.527-0.361,0.729-0.579c0.199-0.219,0.343-0.448,0.429-0.69l1.335,0.403
		c-0.152,0.377-0.37,0.726-0.652,1.045c-0.284,0.317-0.617,0.597-0.999,0.834c-0.383,0.238-0.808,0.418-1.275,0.543
		c-0.469,0.126-0.953,0.188-1.454,0.188c-0.771,0-1.479-0.146-2.126-0.436s-1.204-0.688-1.676-1.192
		c-0.47-0.506-0.839-1.089-1.103-1.749C166.971,52.083,166.835,51.371,166.835,50.613z"/>
	<path fill="#FFFFFF" d="M177.851,50.683c0-0.743,0.132-1.446,0.396-2.109c0.264-0.664,0.628-1.243,1.091-1.74
		c0.465-0.498,1.021-0.896,1.661-1.191c0.643-0.299,1.34-0.446,2.092-0.446c0.757,0,1.455,0.147,2.098,0.446
		c0.642,0.296,1.193,0.693,1.658,1.191c0.461,0.497,0.826,1.077,1.089,1.74s0.395,1.366,0.395,2.109
		c0,0.733-0.132,1.429-0.395,2.086c-0.262,0.659-0.626,1.237-1.089,1.735c-0.465,0.498-1.019,0.892-1.658,1.182
		c-0.643,0.29-1.341,0.436-2.098,0.436c-0.771,0-1.477-0.146-2.116-0.436c-0.641-0.29-1.191-0.684-1.656-1.182
		s-0.824-1.079-1.083-1.74S177.851,51.407,177.851,50.683z M179.265,50.702c0,0.594,0.101,1.142,0.297,1.646
		c0.197,0.505,0.468,0.95,0.811,1.335c0.343,0.384,0.747,0.687,1.213,0.904c0.465,0.218,0.959,0.327,1.486,0.327
		c0.529,0,1.023-0.112,1.49-0.337c0.465-0.224,0.873-0.526,1.226-0.914c0.354-0.388,0.63-0.835,0.831-1.345
		c0.201-0.514,0.303-1.064,0.303-1.657c0-0.58-0.102-1.13-0.303-1.651c-0.201-0.521-0.478-0.974-0.831-1.361
		c-0.353-0.385-0.758-0.688-1.216-0.912c-0.458-0.227-0.949-0.337-1.479-0.337s-1.023,0.11-1.488,0.337
		c-0.466,0.224-0.87,0.53-1.212,0.922c-0.344,0.395-0.615,0.852-0.82,1.371C179.368,49.552,179.265,50.109,179.265,50.702z"/>
	<path fill="#FFFFFF" d="M190.586,55.923V45.372h1.246v2.394c0.436-0.811,1.006-1.44,1.708-1.895
		c0.702-0.452,1.477-0.676,2.326-0.676c0.887,0,1.603,0.248,2.142,0.746c0.538,0.497,0.861,1.151,0.968,1.963
		c0.988-1.807,2.355-2.709,4.099-2.709c0.578,0,1.076,0.106,1.484,0.32c0.412,0.215,0.741,0.523,0.992,0.92
		c0.252,0.397,0.432,0.878,0.547,1.439c0.115,0.56,0.175,1.183,0.175,1.868v6.18h-1.375V50.03c0-1.228-0.19-2.13-0.575-2.71
		c-0.384-0.579-0.967-0.87-1.751-0.87c-0.403,0-0.785,0.075-1.147,0.225c-0.359,0.148-0.688,0.355-0.995,0.626
		c-0.304,0.271-0.57,0.591-0.802,0.959c-0.232,0.369-0.404,0.778-0.527,1.226v6.438h-1.372V50.03c0-1.253-0.187-2.163-0.563-2.729
		c-0.378-0.567-0.954-0.851-1.739-0.851c-0.799,0-1.508,0.274-2.127,0.825c-0.62,0.551-1.065,1.28-1.336,2.19v6.457H190.586z"/>
</g>
<g>
</g>
<g>
</g>
<g>
</g>
<g>
</g>
<g>
</g>
<g>
</g>
</svg>
