<?xml version="1.0" encoding="utf-8"?>
<!-- Generator: Adobe Illustrator 21.0.0, SVG Export Plug-In . SVG Version: 6.00 Build 0)  -->
<svg version="1.1" id="图层_1" xmlns="http://www.w3.org/2000/svg" xmlns:xlink="http://www.w3.org/1999/xlink" x="0px" y="0px"
	 viewBox="0 0 120 37" style="enable-background:new 0 0 120 37;" xml:space="preserve">
<style type="text/css">
	.st0{fill:#FEFEFE;}
	.st1{filter:url(#Adobe_OpacityMaskFilter);}
	.st2{fill:#FFFFFF;}
	.st3{mask:url(#mask-2);fill:#FEFEFE;}
	.st4{filter:url(#Adobe_OpacityMaskFilter_1_);}
	.st5{mask:url(#mask-4);fill:#FEFEFE;}
</style>
<title>Page 1</title>
<desc>Created with Sketch.</desc>
<g id="Page-1_1_">
	<g id="_x2D_新版logo" transform="translate(-165.000000, -1387.000000)">
		<g id="Page-1" transform="translate(165.000000, 1387.608163)">
			<path id="Fill-5" class="st0" d="M83.3,9.7c0-2.6,0-5.3,0-7.9c0-0.5,0-0.5,0.5-0.5c4.9,0,9.9,0,14.8,0c0.4,0,0.4,0,0.4,0.4
				c0,3.3,0,6.6,0,10c0,1.2,0,2.5,0,3.7c0,0.4,0,0.8-0.2,1.1c-0.3,0.9-1,1.3-2,1.4C95.8,18,94.7,18,93.7,18c-0.1,0-0.2,0-0.2-0.1
				c0-0.1,0-0.1,0.1-0.2c0.2-0.3,0.4-0.6,0.6-0.8c0.1-0.2,0.2-0.2,0.4-0.2c0.6,0,1.1,0,1.7,0c0.7,0,1-0.3,1-1.1c0-4,0-8,0-12
				c0,0,0-0.1,0-0.1c0-0.3-0.1-0.3-0.3-0.3c-3.2,0-6.3,0-9.5,0c-0.7,0-1.3,0-2,0c-0.2,0-0.3,0.1-0.3,0.3c0,4.7,0,9.4,0,14.1
				c0,0.6,0,0.6-0.6,0.6c-0.3,0-0.6,0-0.9,0c-0.3,0-0.3-0.1-0.3-0.3c0-2.6,0-5.2,0-7.8C83.3,9.8,83.3,9.7,83.3,9.7"/>
			<path id="Fill-7" class="st0" d="M73.4,6.9c0.1,0.1,0.2,0.1,0.3,0.1c2,0,4.1,0,6.1,0c0.4,0,0.4,0,0.4,0.4c0,2.6,0,5.3,0,7.9
				c0,0.5-0.1,1.1-0.4,1.5c-0.3,0.5-0.9,0.8-1.5,0.9c-0.9,0.1-1.9,0-2.8,0c-0.2,0-0.2-0.1-0.1-0.2c0.1-0.2,0.2-0.4,0.3-0.6
				c0.2-0.3,0.4-0.4,0.7-0.4c0.3,0,0.7,0,1,0c0.6,0,1-0.4,1-1c0-0.1,0-0.3,0-0.4c0-2.2,0-4.3,0-6.5c0-0.3,0-0.4-0.4-0.4
				c-0.2,0-0.5,0-0.7,0c-0.3,0-0.4,0-0.4,0.3c0,0.6,0,1.2-0.1,1.8c-0.3,2.5-1.1,4.8-2.8,6.7c-0.3,0.3-0.6,0.6-0.9,0.9
				c-0.1,0.1-0.1,0.1-0.2,0.1c-0.1,0-0.1-0.1-0.1-0.2c-0.1-0.8,0.2-1.5,0.6-2.1c0.9-1.2,1.3-2.5,1.6-3.9c0.2-1.1,0.3-2.2,0.3-3.3
				c0-0.3,0-0.3-0.3-0.3c-0.4,0-0.7,0-1.1,0c-0.3,0-0.3,0-0.3,0.3c0,1-0.1,2-0.3,2.9c-0.5,2.5-1.7,4.6-3.6,6.3
				c-0.1,0.1-0.1,0.1-0.2,0.1c-0.1,0-0.1-0.1-0.1-0.2c0,0,0,0,0,0c-0.1-0.7,0.1-1.3,0.6-1.9c1-1.4,1.5-3,1.8-4.7
				c0.1-0.8,0.2-1.6,0.2-2.5c0-0.3,0-0.3-0.3-0.3c-0.2,0-0.5,0-0.7,0c-0.3,0-0.3-0.1-0.3-0.3c0-0.2,0-0.4,0-0.6
				c0-0.2,0.1-0.4,0.3-0.5c0.9-0.5,1.7-1.1,2.6-1.8c1-0.7,1.9-1.5,2.8-2.2c0,0,0.1,0,0.1-0.1c0-0.1-0.1,0-0.1,0c0,0-0.1,0-0.1,0
				c-1.6,0-3.2,0-4.8,0c-0.1,0-0.1,0-0.2,0c-0.4,0-0.4,0-0.2-0.4c0.1-0.2,0.2-0.3,0.2-0.5c0.1-0.3,0.4-0.4,0.7-0.4
				c2.3,0.1,4.6,0,6.9,0c0.3,0,0.3,0,0.4,0.3c0.1,0.6-0.2,1.1-0.7,1.5c-1.6,1.3-3.2,2.5-5,3.6C73.5,6.8,73.5,6.9,73.4,6.9"/>
			<path id="Fill-9" class="st0" d="M52.3,9.2c-1.1,0-2.3,0-3.4,0c-0.2,0-0.3,0-0.2,0.2c0,0.2,0,0.3,0.1,0.5c0.1,1,0.4,1.9,1,2.7
				c0.6,0.8,1.4,1.4,2.2,1.9c0.2,0.1,0.3,0.1,0.5,0c0.7-0.4,1.3-0.8,1.8-1.4c0.9-1.1,1.4-2.4,1.6-3.8c0-0.2-0.1-0.1-0.2-0.1
				C54.5,9.2,53.4,9.2,52.3,9.2 M54,15.4c1.2,0.4,2.4,0.6,3.6,0.9c1,0.2,2.1,0.4,3.1,0.6c0.1,0,0.2,0,0.3,0.1
				c0.4,0.4,0.8,0.8,1.2,1.3c-0.4-0.1-0.8-0.1-1.2-0.2c-2-0.3-4-0.7-6-1.1c-0.9-0.2-1.7-0.4-2.5-0.6c-0.2-0.1-0.3-0.1-0.5,0
				c-2.4,0.7-4.8,1.2-7.2,1.6c-0.2,0-0.4,0.1-0.6,0.1c-0.1,0-0.2,0-0.2-0.1c-0.1-0.1,0-0.1,0.1-0.2c0.4-0.8,1.2-1,2-1.1
				c1.5-0.2,3-0.7,4.4-1.2c-0.1-0.1-0.2-0.1-0.2-0.2c-1.1-0.8-2-1.7-2.5-2.9c-0.4-0.9-0.7-1.9-0.8-2.8c0-0.3-0.1-0.3-0.3-0.3
				c-0.9,0-1.9,0-2.8,0c-0.1,0-0.2,0-0.3,0c-0.1,0-0.2-0.1-0.2-0.2c0-0.3,0-0.6,0-0.9c0-0.2,0.1-0.2,0.3-0.2c0.2,0,0.4,0,0.6,0
				c0.8,0,1.6,0,2.4,0c0.3,0,0.3,0,0.3-0.3c0-0.5,0-1,0-1.5c0-0.3,0-0.3,0.3-0.3c0.4,0,0.9,0,1.3,0c0.3,0,0.4,0,0.4,0.3
				c0,0.5,0,1,0,1.6c0,0.3,0,0.3,0.3,0.3c2.2,0,4.4,0,6.6,0c0.2,0,0.3,0,0.3-0.3c0-0.5,0-1.1,0-1.6c0-0.2,0-0.3,0.3-0.3
				c0.5,0,0.9,0,1.4,0c0.2,0,0.3,0.1,0.3,0.3c0,0.5,0,1.1-0.1,1.6c0,0.3,0,0.3,0.3,0.3c0.9,0,1.8,0,2.8,0c0.3,0,0.3,0,0.3,0.3
				c0,0.2,0,0.5,0,0.7c0,0.3-0.1,0.3-0.3,0.4c-0.8,0-1.7,0-2.5,0c-0.7,0-0.6,0-0.7,0.6c-0.3,2.2-1.4,3.8-3.1,5.1
				C54.4,15,54.2,15.2,54,15.4C54,15.3,54,15.3,54,15.4"/>
			<path id="Fill-11" class="st0" d="M64.8,5.7c0,0.5,0,1,0,1.5c0,0.2,0,0.2,0.2,0.2c0.2,0,0.4,0,0.6,0c0.3,0,0.3,0,0.3-0.3
				c0-0.9,0-1.8,0-2.8C66,4.2,65.9,4,65.6,4c-0.2,0-0.4,0-0.6,0c-0.2,0-0.2,0.1-0.2,0.2C64.8,4.8,64.8,5.3,64.8,5.7L64.8,5.7z
				 M68.7,5.7L68.7,5.7c0-0.5,0-1,0-1.5c0-0.2-0.1-0.2-0.2-0.2c-0.3,0-0.5,0-0.8,0c-0.2,0-0.2,0.1-0.2,0.2c0,1,0,1.9,0,2.9
				c0,0.3,0.1,0.4,0.4,0.4c0.2,0,0.4,0,0.6,0c0.2,0,0.3-0.1,0.3-0.3C68.7,6.7,68.7,6.2,68.7,5.7L68.7,5.7z M65.3,8.7
				c-0.1,0-0.2,0-0.3,0c-0.2,0-0.3,0.1-0.3,0.3c0,0.2,0,0.5,0,0.7c0,0.8,0,1.5,0,2.3c0,0.3,0.1,0.4,0.4,0.4c0.1,0,0.3,0,0.4,0
				c0.4,0,0.4,0,0.4-0.4c0-0.9,0-1.8,0-2.7C66,8.7,66,8.6,65.3,8.7L65.3,8.7z M67.5,10.5c0,0.5,0,1,0,1.6c0,0.3,0,0.3,0.3,0.3
				c0.2,0,0.4,0,0.6,0c0.3,0,0.3,0,0.3-0.3c0.1-1.1,0-2.1,0.1-3.2c0-0.2-0.1-0.2-0.2-0.2c-0.2,0-0.5,0-0.7,0c-0.2,0-0.3,0.1-0.3,0.3
				C67.5,9.5,67.5,10,67.5,10.5L67.5,10.5z M63.3,8.2c0-1.7,0-3.3,0-5c0-0.3,0-0.4,0.4-0.4c0.7,0,1.3,0,2,0c0.3,0,0.3,0,0.3-0.3
				c0-0.7,0-1.3,0-2c0-0.3,0.1-0.4,0.4-0.4c0.3,0,0.5,0,0.8,0c0.3,0,0.4,0.1,0.4,0.4c0,0.6,0,1.2,0,1.9c0,0.1,0,0.1,0,0.2
				c0,0.3,0.1,0.3,0.3,0.3c0.7,0,1.3,0,2,0c0.4,0,0.4,0.1,0.4,0.4c0,3.1,0,6.2,0,9.3c0,0.2,0,0.5,0,0.7c0,0.2-0.1,0.3-0.3,0.3
				c-0.5,0-0.9,0-1.4,0c-0.2,0-0.4,0-0.6,0c-0.3,0-0.3,0-0.3,0.3c0,0.4,0,0.8,0,1.1c0,0.8,0,1.7,0,2.5c0,0.4-0.1,0.4-0.4,0.4
				c-0.2,0-0.5,0-0.7,0C66,18,66,18,66,17.6c0-1.1,0-2.1,0-3.2c0-0.2,0-0.4,0-0.6c0-0.2-0.1-0.3-0.3-0.3c-0.7,0-1.3,0-2,0
				c-0.3,0-0.4-0.1-0.4-0.4C63.3,11.5,63.3,9.8,63.3,8.2L63.3,8.2z"/>
			<g id="Group-15" transform="translate(107.954733, 0.342898)">
				<g id="Clip-14">
				</g>
				<defs>
					<filter id="Adobe_OpacityMaskFilter" filterUnits="userSpaceOnUse" x="0.1" y="0" width="11.7" height="10">
						<feColorMatrix  type="matrix" values="1 0 0 0 0  0 1 0 0 0  0 0 1 0 0  0 0 0 1 0"/>
					</filter>
				</defs>
				<mask maskUnits="userSpaceOnUse" x="0.1" y="0" width="11.7" height="10" id="mask-2">
					<g class="st1">
						<polygon id="path-1" class="st2" points="11.8,0 11.8,10.1 0.1,10.1 0.1,0 						"/>
					</g>
				</mask>
				<path id="Fill-13" class="st3" d="M6.3,3L6.3,3c-0.6,0-1.2,0-1.7,0c-0.4,0-0.7,0.1-1,0.4c-0.1,0.2-0.1,0.3,0,0.4
					c0.6,0.8,1.3,1.6,2.1,2.3c0.2,0.1,0.3,0.1,0.4,0c1-0.8,1.8-1.8,2.5-3C8.6,3.1,8.6,3,8.5,3C7.7,3,7,3,6.3,3 M4.5,1.5h3.7
					c0.7,0,1.3,0,2,0c0.1,0,0.2,0,0.3,0.2c0.2,0.5,0.1,1.1-0.1,1.5C10.1,4,9.6,4.7,9.1,5.4C8.6,6.1,8,6.6,7.4,7.1
					c0,0-0.1,0.1-0.1,0.1C8.1,7.8,9,8.2,9.9,8.5c0.4,0.1,0.8,0.2,1.2,0.4c0.2,0.1,0.3,0.2,0.4,0.4c0.1,0.2,0.2,0.4,0.3,0.7
					c0.1,0.2,0,0.3-0.2,0.2C9.7,9.7,7.9,9.2,6.2,8.3C6,8.2,5.8,8.2,5.6,8.3c-1.7,0.8-3.4,1.3-5.2,1.8c-0.2,0.1-0.3,0-0.3-0.2
					c0-0.3,0-0.6,0-0.8c0-0.2,0.1-0.2,0.2-0.3c0.5-0.1,1-0.3,1.5-0.4c0.9-0.3,1.8-0.6,2.7-1c0-0.1-0.1-0.1-0.1-0.1
					C3.6,6.5,2.9,5.8,2.3,5C2.2,4.8,2,4.8,1.8,4.8c-0.4,0-0.8,0-1.2,0.1c-0.1,0-0.2,0-0.2-0.1c0-0.1,0.1-0.2,0.1-0.2
					C1,4.2,1.4,3.8,1.8,3.4c0.7-0.9,1.2-1.9,1.4-3C3.3,0.1,3.3,0,3.7,0C4,0,4.4,0,4.8,0C5.1,0,5.1,0.1,5,0.4c-0.1,0.3-0.3,0.7-0.4,1
					C4.6,1.4,4.6,1.5,4.5,1.5"/>
			</g>
			<path id="Fill-16" class="st0" d="M105,29.4c0.9,0,1.8,0,2.6,0c0.1,0,0.2,0,0.2-0.2c0-0.3,0-0.7-0.1-1c-0.4-1.3-1.8-2.1-3.2-1.9
				c-1.4,0.3-2.4,1.4-2.3,2.9c0,0.1,0.1,0.2,0.2,0.2C103.2,29.4,104.1,29.4,105,29.4 M105.4,30.9c-1,0-2,0-3.1,0
				c-0.2,0-0.2,0-0.2,0.2c0,1.7,1.2,2.9,2.9,2.9c1.1,0,2.2,0,3.3,0c0.5,0,0.8,0.3,0.8,0.7c0,0.4-0.3,0.7-0.7,0.7
				c-1.3,0-2.6,0.1-3.8,0c-2-0.1-3.5-1.6-3.9-3.5c0-0.2-0.1-0.4-0.1-0.6c0-0.9-0.1-1.8,0-2.7c0.2-1.6,1.1-2.8,2.7-3.4
				c1.9-0.8,3.9-0.2,5.1,1.5c0.5,0.7,0.8,1.5,0.8,2.4c0,0.3,0,0.7,0,1c0,0.5-0.3,0.8-0.8,0.8C107.5,30.9,106.4,30.9,105.4,30.9"/>
			<path id="Fill-18" class="st0" d="M79.8,25.8c0.6-0.4,1.2-0.5,1.9-0.5c1.1,0,2.2-0.1,3.3,0.1c0.3,0,0.6,0.1,0.9,0.2
				c0.8,0.3,1.2,0.9,1.3,1.7c0,0.2,0,0.4,0,0.6c0,2.2,0,4.5,0,6.7c0,0.5-0.2,0.8-0.7,0.8c-0.4,0-0.8-0.2-0.8-0.6c0-0.1,0-0.2,0-0.3
				c0-2,0-3.9,0-5.9c0-0.3,0-0.7-0.1-1c-0.1-0.4-0.4-0.7-0.8-0.9c-0.3-0.1-0.6-0.2-0.9-0.2c-0.9-0.1-1.9-0.1-2.8,0.2
				c-0.9,0.3-1.3,0.7-1.3,1.7c0,2,0,4,0,6c0,0.1,0,0.2,0,0.3c0,0.4-0.3,0.7-0.7,0.7c-0.4,0-0.7-0.3-0.8-0.7c0-0.1,0-0.1,0-0.2
				c0-3.8,0-7.5,0-11.3c0-0.1,0-0.3,0.1-0.4c0.1-0.3,0.5-0.5,0.8-0.4c0.4,0.1,0.6,0.3,0.6,0.7c0,0.8,0,1.6,0,2.3
				C79.8,25.6,79.8,25.7,79.8,25.8"/>
			<path id="Fill-20" class="st0" d="M49.5,22.5c0.8,0,1.3,0.5,1.7,1.2c0.3,0.5,0.4,1.1,0.5,1.6c0.9,3.1,1.8,6.1,2.7,9.2
				c0.1,0.4,0,0.8-0.3,0.9c-0.3,0.2-0.7,0.1-0.9-0.2C53.1,35.1,53,35,53,34.8c-0.9-2.9-1.7-5.8-2.6-8.6c-0.1-0.5-0.3-1-0.4-1.4
				c-0.1-0.2-0.2-0.5-0.4-0.6c-0.2-0.2-0.3-0.2-0.5,0c-0.2,0.2-0.3,0.4-0.3,0.6c-1,3.3-2,6.7-3,10c-0.1,0.3-0.2,0.6-0.6,0.7
				c-0.6,0.1-1.1-0.4-0.9-1c0.4-1.2,0.7-2.4,1.1-3.6c0.6-2.2,1.3-4.4,1.9-6.5c0.1-0.4,0.3-0.8,0.6-1.2
				C48.4,22.8,48.9,22.5,49.5,22.5"/>
			<path id="Fill-22" class="st0" d="M113.9,12.1L113.9,12.1c-0.9,0-1.7,0-2.6,0c-0.3,0-0.3,0-0.3,0.3c0,1.2,0,2.4,0,3.7
				c0,0.3,0,0.3,0.3,0.3c1.7,0,3.4,0,5.1,0c0.3,0,0.3,0,0.3-0.3c0-1.2,0-2.4,0-3.7c0-0.3,0-0.3-0.3-0.3
				C115.6,12.1,114.7,12.1,113.9,12.1L113.9,12.1z M113.8,10.8c1.4,0,2.8,0,4.3,0c0.3,0,0.4,0,0.4,0.4c0,2,0,4-0.1,5.9
				c0,0.1,0,0.2,0,0.3c0,0.1-0.1,0.2-0.2,0.2c-0.1,0-0.2,0-0.3,0c-2.6,0-5.1,0.1-7.7,0.1c-0.2,0-0.5,0-0.7,0c-0.2,0-0.3-0.1-0.3-0.3
				c0-0.6,0-1.1,0-1.7c0-1.5,0-2.9,0-4.4c0-0.5,0-0.5,0.5-0.5L113.8,10.8L113.8,10.8z"/>
			<path id="Fill-24" class="st0" d="M98.4,31.7c0,1,0,2,0,3c0,0.6-0.5,1-1,0.8c-0.3-0.1-0.5-0.4-0.5-0.8c0-0.7,0-1.4,0-2.1
				c0-1.2,0-2.5,0-3.7c0-0.5-0.1-1-0.4-1.4c-0.2-0.3-0.5-0.5-0.9-0.6c-1-0.2-2-0.1-3,0c-0.8,0.1-1.3,0.7-1.5,1.5
				c-0.1,0.3-0.1,0.7-0.1,1c0,1.8,0,3.6,0,5.4c0,0.4-0.2,0.7-0.5,0.8c-0.5,0.1-0.9-0.2-1-0.7c0-0.1,0-0.1,0-0.2c0-1.8,0-3.6,0-5.5
				c0-0.7,0.1-1.3,0.3-1.9c0.4-1,1.1-1.6,2.2-1.8c1.3-0.2,2.6-0.2,3.9,0c1.2,0.2,1.8,0.9,2.2,2c0.2,0.5,0.2,1.1,0.2,1.7
				C98.4,30,98.4,30.8,98.4,31.7"/>
			<g id="Group-28" transform="translate(56.061599, 25.383116)">
				<g id="Clip-27">
				</g>
				<defs>
					<filter id="Adobe_OpacityMaskFilter_1_" filterUnits="userSpaceOnUse" x="0" y="0" width="8.9" height="10.1">
						<feColorMatrix  type="matrix" values="1 0 0 0 0  0 1 0 0 0  0 0 1 0 0  0 0 0 1 0"/>
					</filter>
				</defs>
				<mask maskUnits="userSpaceOnUse" x="0" y="0" width="8.9" height="10.1" id="mask-4">
					<g class="st4">
						<polygon id="path-3" class="st2" points="9,10.1 0,10.1 0,0 9,0 						"/>
					</g>
				</mask>
				<path id="Fill-26" class="st5" d="M9,6.3c0,1,0,2,0,3c0,0.6-0.5,1-1,0.8C7.6,10,7.4,9.7,7.4,9.3c0-0.8,0-1.5,0-2.3
					c0-1.2,0-2.3,0-3.5c0-0.5-0.1-1-0.4-1.4C6.8,1.8,6.5,1.6,6.1,1.5c-1-0.2-2-0.1-3,0C2.4,1.5,2,2.1,1.7,2.8
					C1.6,3.1,1.5,3.5,1.5,3.9c0,1.8,0,3.6,0,5.4c0,0.2,0,0.4-0.1,0.5c-0.2,0.3-0.5,0.4-0.8,0.3C0.3,10,0.1,9.8,0,9.5
					c0-0.1,0-0.1,0-0.2c0-1.8,0-3.7,0-5.5c0-0.6,0.1-1.3,0.3-1.9c0.4-1,1.1-1.6,2.2-1.8C3.9,0,5.2,0,6.5,0.2c1.2,0.2,1.8,0.9,2.2,2
					C8.9,2.7,9,3.3,9,3.8C9,4.7,9,5.5,9,6.3"/>
			</g>
			<path id="Fill-29" class="st0" d="M104.8,7.7c-0.8,0-1.6,0-2.4,0c-0.1,0-0.2,0-0.2,0c-0.2,0-0.3-0.1-0.3-0.3
				c-0.1-0.6,0.1-1.1,0.4-1.6c0.7-1,1.3-2,1.7-3.1c0.3-0.7,0.5-1.3,0.7-2c0.1-0.3,0.1-0.3,0.4-0.3c0.4,0,0.7,0,1.1,0
				c0.3,0,0.3,0.1,0.3,0.3c-0.4,1.3-0.9,2.5-1.5,3.6c-0.3,0.6-0.7,1.2-1.1,1.7c0,0.1-0.1,0.1-0.2,0.2c0.3,0.1,0.6,0,0.9,0
				c0.3,0,0.6-0.1,0.9-0.1c0.2,0,0.3-0.1,0.3-0.3c0.2-0.5,0.5-1.1,0.7-1.6c0.1-0.3,0.2-0.3,0.5-0.3c0.3,0,0.7,0,1,0
				c0.3,0,0.3,0.1,0.2,0.3c-0.9,2.1-2,4.1-3.4,5.9c-0.2,0.3-0.4,0.6-0.7,0.8c0,0,0,0,0,0c0.1,0.1,0.1,0,0.2,0c1,0,2.1,0,3.1-0.1
				c0.3,0,0.4,0,0.4,0.4c0,0.2,0,0.4,0,0.6c0,0.3,0,0.4-0.3,0.4c-0.4,0-0.8,0.1-1.2,0.1c-1.2,0-2.4,0-3.6,0.1
				c-0.3,0-0.4-0.1-0.4-0.4c-0.1-0.6,0.1-1.1,0.5-1.5c0.8-0.9,1.4-1.8,2-2.8C104.8,7.8,104.8,7.8,104.8,7.7"/>
			<path id="Fill-31" class="st0" d="M52.2,3.4c-2,0-4,0-6,0c-0.4,0-0.4,0-0.4,0.4c0,0.4,0,0.8,0,1.3c0,0.2-0.1,0.3-0.3,0.3
				c-0.4,0-0.9,0-1.3,0c-0.2,0-0.2-0.1-0.2-0.2c0-0.9,0-1.9,0-2.8C44.1,2,44.2,2,44.4,2c2.1,0,4.2,0,6.3,0c0.4,0,0.4,0,0.2-0.4
				c-0.2-0.3-0.4-0.7-0.5-1c-0.1-0.3-0.1-0.3,0.2-0.3c0.5,0,1,0,1.5,0c0.1,0,0.2,0.1,0.3,0.2c0.2,0.4,0.5,0.8,0.7,1.2
				C53.1,1.9,53.3,2,53.5,2c2.1,0,4.1,0,6.2,0c0.1,0,0.2,0,0.3,0c0.3,0,0.3,0,0.3,0.3c0,0.8,0,1.6,0,2.4c0,0.1,0,0.2,0,0.3
				c0,0.2-0.1,0.2-0.2,0.2c-0.4,0-0.9,0-1.3,0c-0.2,0-0.2-0.1-0.2-0.3c0-0.4,0-0.9,0-1.3c0-0.3,0-0.3-0.3-0.3
				C56.2,3.4,54.2,3.4,52.2,3.4L52.2,3.4z"/>
			<path id="Fill-33" class="st0" d="M73.3,35.4c-0.6,0-1.4,0.1-2.2-0.1c-1.7-0.4-3-1.3-3.6-3.1c-0.1-0.4-0.2-0.7-0.2-1.1
				c0-0.7,0-1.3,0-2c0-1.7,0.8-2.8,2.2-3.7c0.8-0.5,1.6-0.7,2.6-0.7c1,0,2,0,3,0c0.5,0,0.9,0.4,0.8,0.9c0,0.3-0.3,0.5-0.6,0.6
				c-0.1,0-0.2,0-0.3,0c-1.1,0-2.1,0-3.2,0c-1.1,0.1-2,0.6-2.6,1.6c-0.1,0.3-0.2,0.6-0.3,0.9c0,0.8,0,1.6,0,2.4
				c0,1.2,0.7,1.9,1.7,2.4c0.5,0.2,1,0.3,1.6,0.3c1,0,2.1,0,3.1,0c0.4,0,0.7,0.2,0.8,0.6c0.1,0.5-0.2,0.9-0.7,0.9
				C74.7,35.4,74.1,35.4,73.3,35.4"/>
			<g id="Group">
				<g id="Group-7">
					<path id="Fill-1" class="st2" d="M24.5,15.9c0-0.1,0-0.1,0-0.2c-1.1-2.9-2.1-5.9-3.2-8.8c-0.3-0.8-0.7-1.5-1.4-2.1
						c-1.1-1-2.6-1.1-3.9-0.5c-1,0.5-1.6,1.4-2,2.4c-0.8,2.3-1.7,4.6-2.5,6.9c-0.3,0.7-0.5,1.4-0.8,2.1c0,0,0.1,0,0.1,0
						c1-0.2,2.1-0.3,3.1-0.3c0.1,0,0.2-0.1,0.2-0.2c0.1-0.4,0.3-0.7,0.4-1.1c0.8-2.1,1.6-4.3,2.4-6.4c0.1-0.2,0.2-0.4,0.3-0.6
						c0.2-0.2,0.4-0.2,0.6,0c0.2,0.2,0.4,0.5,0.5,0.8c0.9,2.4,1.8,4.9,2.7,7.3c0,0.1,0.1,0.2,0.2,0.2c0.5,0,1.1,0.1,1.6,0.2
						C23.5,15.7,24,15.8,24.5,15.9 M35.3,17.6c0,1.2-0.1,2.3-0.3,3.5c0,0.2-0.1,0.2-0.2,0.1c-2.7-0.9-5.4-1.6-8.2-2.1
						c-3.5-0.6-7.1-0.8-10.6-0.7c-2.3,0.1-4.6,0.3-6.9,0.7c-2.9,0.5-5.7,1.2-8.4,2.1c-0.2,0.1-0.3,0.1-0.3-0.2
						c-1-5.9,0.4-11.1,4.5-15.5c2.6-2.9,5.9-4.6,9.8-5.3c8.6-1.5,17,3.5,19.8,11.7C35,13.8,35.3,15.7,35.3,17.6"/>
					<path id="Fill-3" class="st2" d="M17.4,21.3c2.1,0,4,0.1,5.9,0.3c0.1,0,0.2,0.1,0.2,0.2c0.8,2.1,1.5,4.1,2.3,6.2
						c0.5,1.4,1,2.8,1.5,4.1c0.1,0.1,0,0.2-0.1,0.3c-2.2,1.4-4.5,2.2-7.1,2.6c-4.3,0.6-8.3-0.3-11.9-2.6C8,32.4,8,32.3,8.1,32.1
						c1.3-3.4,2.5-6.8,3.8-10.3c0.1-0.2,0.1-0.2,0.3-0.2c1.1-0.1,2.2-0.2,3.3-0.3C16.1,21.3,16.9,21.3,17.4,21.3"/>
					<path id="Fill-35" class="st2" d="M5.5,30.4c-0.5-0.4-0.9-0.9-1.2-1.3c-1.2-1.4-2.2-3-2.9-4.7c-0.1-0.1-0.1-0.2,0.1-0.3
						c2.3-0.8,4.6-1.4,6.9-1.9c0,0,0.1,0,0.1,0C7.5,24.9,6.5,27.6,5.5,30.4"/>
					<path id="Fill-37" class="st2" d="M26.9,22.2c0.8,0.1,1.4,0.3,2.1,0.5c1.6,0.4,3.2,0.9,4.8,1.4c0.2,0.1,0.2,0.1,0.1,0.3
						c-0.9,2.2-2.2,4.1-4,5.8c0,0-0.1,0.1-0.1,0.1c0,0,0,0-0.1,0C28.9,27.7,27.9,25,26.9,22.2"/>
				</g>
			</g>
			<path id="Fill-39" class="st0" d="M112.1,27.4c0-1.3,0-2.7,0-4c0-0.6,0.5-0.9,1-0.8c0.3,0.1,0.5,0.4,0.5,0.7c0,0.5,0,1,0,1.4
				c0,0.2,0,0.3,0.3,0.3c0.8,0,1.7,0,2.5,0c0.4,0,0.7,0.2,0.8,0.5c0.2,0.5-0.2,1-0.7,1c-0.9,0-1.7,0-2.6,0c-0.2,0-0.2,0-0.2,0.2
				c0,1.5,0,3,0,4.4c0,1.5,1.1,2.7,2.6,2.8c0.1,0,0.3,0,0.4,0c0.4,0.1,0.6,0.4,0.5,0.8c0,0.4-0.3,0.7-0.7,0.7
				c-1.2,0-2.3-0.4-3.1-1.3c-0.8-0.8-1.2-1.8-1.2-3C112.1,29.9,112.1,28.6,112.1,27.4"/>
			<path id="Fill-41" class="st0" d="M93.9,7.5c0.4-0.8,0.8-1.6,1-2.4C95,4.8,95,4.7,95.3,4.7c0.3,0,0.6,0,0.9,0
				c0.2,0,0.3,0.1,0.2,0.3c-0.3,1.5-0.8,3-1.6,4.4c-0.1,0.1,0,0.3,0,0.4c0.5,0.8,1,1.6,1.5,2.4c0.1,0.2,0.2,0.4,0.2,0.6
				c0,0.4,0,0.8,0,1.2c0,0.1,0,0.2-0.1,0.2c-0.1,0-0.1-0.1-0.2-0.1c-0.8-1-1.6-2-2.4-3c-0.1,0.1-0.1,0.1-0.1,0.2
				c-0.7,1-1.4,2-2.2,2.9c0,0.1-0.1,0.1-0.2,0.1c-0.1,0-0.1-0.1-0.1-0.2c0-0.4,0-0.7,0-1.1c0-0.1,0.1-0.2,0.1-0.3
				c0.6-0.9,1.1-1.8,1.6-2.7c0.1-0.1,0.1-0.2,0-0.4c-0.8-1.4-1.2-2.9-1.5-4.4c0-0.1,0-0.2-0.1-0.2c-0.1-0.3,0-0.3,0.2-0.3
				c0.3,0,0.7,0,1,0c0.2,0,0.2,0.1,0.3,0.2C93.3,6,93.5,6.8,93.9,7.5"/>
			<path id="Fill-43" class="st0" d="M88.2,7.6c0.5-0.7,0.9-1.5,1.1-2.4c0.1-0.5,0.1-0.5,0.6-0.5c0.2,0,0.5,0,0.7,0
				c0.2,0,0.3,0.1,0.2,0.3c-0.3,1.5-0.8,3-1.6,4.4c-0.1,0.2-0.1,0.4,0,0.6c0.5,0.9,0.9,2,1.5,2.9c0.1,0.2,0.2,0.3,0.2,0.5
				c0,0.3,0,0.5,0,0.8c0,0.1,0,0.2-0.1,0.2c-0.1,0-0.1,0-0.2-0.1c-0.8-0.9-1.6-1.9-2.2-2.9c-0.1-0.2-0.2-0.1-0.3,0
				c-0.7,1-1.4,1.9-2.2,2.8c-0.1,0.1-0.1,0.2-0.2,0.1c-0.1,0-0.1-0.2-0.1-0.2c0-0.3,0-0.7,0.1-1c0-0.3,0.1-0.5,0.3-0.8
				c0.5-0.7,0.9-1.4,1.3-2.1c0.2-0.3,0.2-0.6,0-0.9c-0.8-1.3-1.2-2.7-1.6-4.2c-0.1-0.2,0-0.3,0.2-0.3c0.3,0,0.6,0,0.9,0
				c0.2,0,0.2,0.1,0.3,0.2C87.3,6,87.5,6.6,88.2,7.6"/>
			<path id="Fill-45" class="st0" d="M102.4,17.5c-0.1,0-0.3,0-0.4,0c-0.2,0-0.2-0.1-0.2-0.2c0-0.3,0-0.5,0-0.8
				c0-0.2,0.1-0.3,0.3-0.4c0.5-0.1,1.1-0.1,1.6-0.2c1.4-0.2,2.7-0.4,4.1-0.7c0.1,0,0.1,0,0.2,0c0.1,0,0.2,0,0.1,0.2
				c-0.1,0.3-0.3,0.7-0.4,1c0,0.1-0.2,0.2-0.3,0.2c-1.4,0.3-2.7,0.7-4.1,0.9C103,17.4,102.7,17.4,102.4,17.5
				C102.4,17.5,102.4,17.5,102.4,17.5"/>
		</g>
	</g>
</g>
</svg>
