<?xml version="1.0" encoding="utf-8"?>
<!-- Generator: Adobe Illustrator 16.0.0, SVG Export Plug-In . SVG Version: 6.00 Build 0)  -->
<!DOCTYPE svg PUBLIC "-//W3C//DTD SVG 1.1//EN" "http://www.w3.org/Graphics/SVG/1.1/DTD/svg11.dtd">
<svg version="1.1" id="图层_1" xmlns="http://www.w3.org/2000/svg" xmlns:xlink="http://www.w3.org/1999/xlink" x="0px" y="0px"
	 width="300px" height="83px" viewBox="0 0 300 83" enable-background="new 0 0 300 83" xml:space="preserve">
<g>
	<path fill="#FFFFFF" d="M171.911,28.333c-1.37,0.212-2.326,0.919-3.7,1.078v0.155h-0.153v5.549h-9.097
		c-0.062-3.866-0.159-9.308,4.317-8.324c0.684,0.15,1.271,0.495,2.003,0.616v-3.545c-8.477-1.146-10.317,2.744-10.174,11.253H151.1
		v3.392h4.008v19.886h3.854V38.506h9.097c-0.053,4.522-0.717,14.83,0.771,17.728c0.561,1.097,1.419,1.65,2.62,2.158
		c1.354,0.572,4.521,1.039,5.857,0c0.156-0.053,0.31-0.104,0.462-0.156v-3.391c-0.935,0.487-3.18,1.382-4.316,0.309
		c-1.312-0.473-1.049-1.577-1.388-3.082c-0.289-1.284-0.153-3.239-0.153-4.779v-8.787h5.857v-3.392h-5.857V28.333z M43.808,24.478
		c-0.589,0.572-1.124,1.108-1.697,1.696c-0.024,1.91,0.469,2.116,1.233,3.084c0.792,0.115,1.883,0.317,2.467-0.155
		c1.145-0.38,1.304-1.481,1.232-3.084c-0.396-0.398-0.904-0.951-1.232-1.386C45.144,24.582,44.476,24.529,43.808,24.478z
		 M30.397,27.714c-0.637,1.445-1.318,2.914-2.005,4.472c-2.024,4.584-4.449,9.288-6.474,13.873c-0.786,1.779-1.38,4.515-2.467,6.013
		v0.152c-0.538-0.679-0.555-1.771-0.924-2.618c-0.852-1.962-1.712-3.951-2.621-6.012c-1.671-3.793-3.357-7.655-5.087-11.563
		c-0.851-1.921-2.281-4.014-2.776-6.165H2.802v32.527h3.855C6.654,49.351,6.864,39.89,6.504,31.107
		c0.309,0.977,0.617,1.954,0.923,2.929c1.036,2.372,2.146,4.77,3.239,7.245c1.702,3.856,3.479,7.75,5.24,11.716
		c0.75,1.685,2.029,3.486,2.467,5.396h2.157c0.347-0.248,1.925-4.771,2.312-5.551c2.182-4.393,3.985-8.982,6.011-13.565
		c1.023-2.312,2.974-4.891,3.238-7.708c0.452,0.73,0,5.738,0,7.246v19.578H36.1V25.866h-4.934
		C30.717,26.114,30.625,27.2,30.397,27.714z M199.968,25.866c-0.399,0.293-0.407,1.501-0.616,2.002
		c-0.795,1.914-1.459,3.996-2.313,6.012c-2.378,5.618-4.44,11.64-6.782,17.267c-0.87,2.093-1.364,5.235-2.621,6.937v0.309h4.316
		c0.51-0.274,0.53-1.729,0.771-2.313c0.785-1.906,2.082-4.258,2.313-6.475c0.169-0.143,0.017,0.014,0.156-0.156h13.72
		c0.544,3.157,2.587,5.805,3.235,8.941h4.473c-4.162-10.843-8.324-21.686-12.487-32.527h-4.164V25.866z M207.52,45.597v0.155
		h-10.946c0.502-1.971,1.426-3.915,2.16-5.705c1.307-3.185,2.16-6.247,3.235-9.556c0.661,0.944,0.636,2.458,1.08,3.544
		c1.137,2.775,2.251,5.86,3.39,8.634C206.854,43.682,206.873,44.837,207.52,45.597z M60.765,34.653
		c-0.789,0.499-2.073,0.403-2.929,0.771c-2.778,1.191-4.992,3.529-6.167,6.32c-0.388,0.923-0.551,2.123-0.771,3.084
		c-0.358,1.568-0.171,3.448,0.156,4.777c1.379,5.627,3.73,8.113,9.403,9.404c3.246,0.738,5.813-0.979,7.862-1.543V53.77
		c-1.247,0.368-2.242,1.296-3.545,1.695c-5.501,1.676-8.946-2.493-9.867-6.167c-1.298-5.175,1.731-9.61,4.933-10.945
		c2.666-1.109,6.851-0.153,8.325,1.388h0.154c0.011-1.298,0.193-3.133-0.154-4.162C65.75,34.99,64.158,34.594,60.765,34.653z
		 M106.396,39.585c-2.281-3.718-5.507-5.019-11.716-4.933c-0.829,0.522-2.177,0.391-3.083,0.771
		c-2.522,1.058-4.641,3.341-5.703,5.858c-0.37,0.878-0.556,2.027-0.771,2.93c-1.493,6.239,2.158,11.885,5.703,13.723
		c1.255,0.647,2.408,0.557,4.009,0.925c1.099,0.249,2.977,0.295,4.163,0c5.859-1.459,10.481-7.001,8.632-14.953
		C107.229,42.186,107.178,40.861,106.396,39.585z M102.232,53.304c-0.801,1.114-2.498,1.932-4.008,2.313
		c-6.839,1.729-10.789-5.953-8.94-12.179c0.671-2.259,2.24-4.222,4.315-5.087c0.621-0.257,1.466-0.13,2.005-0.462
		c3.953-0.063,6.402,1.332,7.553,4.008C104.608,45.267,103.979,50.879,102.232,53.304z M124.43,49.144
		c-1.512-2.591-6.552-4.392-9.249-6.011c-0.224-0.811-0.85-2.294-0.309-3.392c1.337-2.707,7.166-2.048,8.941-0.155h0.153v-4.007
		c-2.182-0.532-3.845-0.979-6.938-0.926c-0.384,0.25-0.875,0.124-1.388,0.309c-1.202,0.435-2.569,1.296-3.39,2.159
		c-0.663,0.693-0.877,1.428-1.233,2.467c-2.006,5.845,3.657,7.852,6.938,9.557c0.824,0.429,1.911,0.705,2.467,1.387
		c0.573,0.705,0.604,1.639,0.618,2.929c-0.381,0.392-0.799,1.092-1.08,1.542c-3.471,0.922-6.986,0.716-9.096-1.542h-0.154v4.163
		c0.297,0.551,2.409,0.862,3.239,1.079c4.331,1.13,8.708-0.618,10.328-3.237c0.61-0.988,0.933-2.776,0.618-4.161
		C124.692,50.412,124.819,49.809,124.43,49.144z M148.478,39.277c-2.193-3.563-5.609-4.708-11.56-4.624
		c-0.921,0.582-2.41,0.498-3.392,0.926c-2.398,1.046-4.392,3.404-5.395,5.858c-3.7,9.042,2.808,19.917,13.103,17.417
		c4.124-0.999,6.956-3.512,8.323-7.245c0.37-1.008,0.202-1.785,0.462-2.929c0.376-1.645,0.266-4.328-0.154-5.857
		C149.548,41.662,149.084,40.259,148.478,39.277z M140.464,55.617c-6.766,1.697-10.744-5.92-8.941-12.023
		c0.636-2.152,2.074-4.237,4.009-5.087c0.691-0.305,1.676-0.224,2.312-0.617c4.186-0.067,6.499,1.459,7.708,4.317
		c0.535,1.262,0.617,2.727,0.617,4.471C146.168,51.756,144.49,54.606,140.464,55.617z M282.132,47.756h16.341
		c0.06-5.983-1.1-9.996-4.78-12.179c-0.882-0.523-1.783-0.485-2.929-0.771c-5.296-1.321-9.176,2.072-10.944,4.933
		c-0.728,1.171-1.193,2.875-1.544,4.316c-0.323,1.325-0.274,3.521,0,4.778c0.224,1.017,0.025,1.729,0.309,2.62
		c1.276,4.001,3.368,6.086,7.556,7.245c0.974,0.271,2.938,0.606,4.316,0.311c0.837-0.184,1.867-0.193,2.772-0.463
		c1.288-0.382,2.439-1.129,3.548-1.697v-3.697c-1.495,0.778-2.82,1.767-4.626,2.313C286.188,57.263,282.06,52.812,282.132,47.756z
		 M286.292,38.351c4.762-2.045,8.234,1.646,8.169,6.166h-12.333C283.033,41.841,283.834,39.407,286.292,38.351z M81.114,34.806
		c-2.074,0.514-4.317,2.532-4.624,4.777c-0.517-0.798-0.179-3.323-0.154-4.47h-3.854v23.277h3.854
		c-0.074-6.586-0.778-14.377,2.006-18.19c0.929-1.274,4.49-3.145,6.165-1.08h0.155V34.96C83.73,34.878,82.231,34.53,81.114,34.806z
		 M274.268,34.806c-2.102,0.522-4.31,2.496-4.624,4.777c-0.517-0.798-0.179-3.323-0.152-4.47h-3.854v23.277h3.854
		c-0.075-6.422-0.962-15.131,2.158-18.499c1.019-1.1,4.464-2.677,6.013-0.771h0.153v-4.162
		C276.886,34.878,275.385,34.53,274.268,34.806z M42.575,58.393h3.855V35.115h-3.855V58.393z M219.39,38.506h12.179
		c-1.067,1.756-2.536,3.283-3.699,4.932c-2.043,2.899-3.968,5.734-6.012,8.634c-1.091,1.547-3.101,3.188-3.701,5.088
		c-0.176,0.257-0.167,0.755-0.152,1.232h19.27v-3.238h-13.412c0.678-1.898,2.587-3.507,3.701-5.087
		c2.297-3.261,4.482-6.453,6.781-9.711c0.872-1.233,2.424-2.496,2.93-4.006c0.173-0.257,0.167-0.758,0.153-1.233h-18.035v3.39
		H219.39z M255.616,45.752c0,1.674,0.269,3.821-0.154,5.241c-0.39,1.317-1.146,2.235-2.002,3.084
		c-0.966,0.949-2.85,2.136-5.243,1.541c-1.329-0.329-2.612-1.272-3.236-2.312c-1.638-2.733-0.982-13.585-0.925-18.19h-3.856
		c-0.035,5.609-0.823,16.975,1.234,20.348c1.301,2.133,2.838,2.718,5.703,3.39c1.381,0.325,3.465,0.17,4.625-0.309
		c1.659-0.681,2.418-2.08,3.699-3.082v-0.31h0.154v3.238h4.009V35.115h-4.009L255.616,45.752L255.616,45.752z"/>
</g>
</svg>
