<?xml version="1.0" encoding="utf-8"?>
<!-- Generator: Adobe Illustrator 16.0.0, SVG Export Plug-In . SVG Version: 6.00 Build 0)  -->
<!DOCTYPE svg PUBLIC "-//W3C//DTD SVG 1.1 Tiny//EN" "http://www.w3.org/Graphics/SVG/1.1/DTD/svg11-tiny.dtd">
<svg version="1.1" baseProfile="tiny" id="图层_1"
	 xmlns="http://www.w3.org/2000/svg" xmlns:xlink="http://www.w3.org/1999/xlink" x="0px" y="0px" width="300px" height="70px"
	 viewBox="0 0 300 70" xml:space="preserve">
<path id="XMLID_2_" fill="#FFFFFF" d="M51.276,34.837c0-6.327-5.25-11.578-11.577-11.578c-6.326,0-11.576,5.25-11.576,11.578
	c0,6.326,5.25,11.575,11.576,11.575c6.327,0,11.577,5.251,11.577,11.578c0,6.325,5.25,11.576,11.576,11.576
	s11.576-5.251,11.576-11.576c0-6.327-5.25-11.578-11.576-11.578S51.276,41.163,51.276,34.837z"/>
<path id="XMLID_3_" fill="#FFFFFF" d="M86.005,46.412c6.327,0,11.577-5.249,11.577-11.575c0-6.327-5.25-11.578-11.577-11.578
	s-11.577,5.25-11.577,11.578c0,6.326-5.25,11.575-11.576,11.575S51.276,51.663,51.276,57.99c0,6.325,5.25,11.576,11.576,11.576
	s11.576-5.251,11.576-11.576C74.429,51.663,79.678,46.412,86.005,46.412z"/>
<circle id="XMLID_1_" fill="#FFFFFF" cx="62.853" cy="34.836" r="8.211"/>
<path id="XMLID_4_" fill="#FFFFFF" d="M74.429,11.684c0-6.327-5.25-11.576-11.576-11.576S51.276,5.356,51.276,11.684
	c0,6.327,5.25,11.576,11.576,11.576s11.576,5.25,11.576,11.578c0,6.326,5.25,11.575,11.577,11.575s11.577-5.249,11.577-11.575
	c0-6.327-5.25-11.578-11.577-11.578S74.429,18.01,74.429,11.684z"/>
<g id="XMLID_5_">
	<path id="XMLID_6_" fill="#FFFFFF" d="M116.428,22.586c-1.078,2.155-2.289,4.039-3.77,5.923v20.058h-2.019v-17.5
		c-1.615,1.884-3.366,3.634-5.115,4.98c-0.27-0.404-1.211-1.077-1.615-1.346c4.173-3.096,8.211-7.807,10.634-12.789L116.428,22.586z
		 M116.428,16.934v3.903h-2.02v-3.903h-10.5v-1.886h10.5v-4.308h2.02v4.308h11.577v-4.308h2.019v4.308h10.365v1.886h-10.365v4.172
		h-2.019v-4.172H116.428z M136.485,46.009c2.154,0,2.422-1.076,2.692-6.597c0.539,0.405,1.346,0.81,1.884,0.943
		c-0.269,5.923-0.942,7.674-4.576,7.674h-8.615c-3.635,0-4.711-0.808-4.711-4.04v-7.807c-1.884,0.943-3.77,1.75-5.654,2.557
		c-0.135-0.537-0.538-1.076-0.808-1.613c2.154-0.943,4.308-1.885,6.462-2.962V21.779h2.02v11.172
		c4.576-2.423,9.018-4.981,11.845-7.403l1.481,1.481c-3.365,2.692-8.346,5.249-13.326,7.807v8.884c0,1.615,0.403,2.019,2.692,2.019
		h8.615V46.009z"/>
	<path id="XMLID_10_" fill="#FFFFFF" d="M171.753,27.433c2.826,3.769,7.537,6.864,12.384,8.346
		c-0.404,0.403-1.077,1.211-1.346,1.614c-5.25-1.884-10.365-5.519-13.326-9.96H159.1c-3.097,3.903-7.135,7.269-12.384,9.827
		c-0.27-0.404-0.942-1.212-1.346-1.48c4.577-2.155,8.346-4.981,11.173-8.212h-9.961v-1.884h11.442
		c1.347-1.751,2.423-3.501,3.365-5.25h-12.115v-1.885h13.058c1.077-2.693,1.75-5.25,2.153-7.808l2.019,0.27
		c-0.403,2.423-1.076,4.981-2.152,7.538h5.922c1.481-1.75,3.365-4.577,4.443-6.461l1.884,0.673
		c-1.211,1.886-2.826,4.039-4.308,5.789h7.538v1.885h-16.288c-0.941,1.75-1.884,3.635-3.096,5.25h22.346v1.884h-11.038V27.433z
		 M156.676,18.145c-0.673-1.48-2.288-3.769-3.769-5.385l1.48-0.942c1.481,1.616,3.096,3.771,3.904,5.25L156.676,18.145z
		 M173.233,46.143c2.692,0,3.096-0.807,3.365-5.384c0.539,0.404,1.346,0.673,1.885,0.809c-0.403,5.249-1.212,6.462-5.25,6.462
		h-12.249c-4.578,0-5.924-0.675-5.924-3.636v-11.98H173.1c0,0,0,0.674,0,0.941c-0.27,4.711-0.674,6.597-1.481,7.404
		c-0.538,0.539-1.211,0.809-2.288,0.809c-1.077,0.134-3.365,0-5.52-0.136c-0.135-0.537-0.27-1.21-0.538-1.614
		c2.423,0.269,4.712,0.269,5.385,0.269c0.808,0,1.211,0,1.48-0.269c0.403-0.405,0.808-1.885,0.942-5.25h-14v10.229
		c0,1.481,0.673,1.752,3.904,1.752h12.249V46.143z"/>
	<path id="XMLID_14_" fill="#FFFFFF" d="M197.732,25.414c1.346,1.48,5.114,6.595,6.059,7.941l-1.348,1.616
		c-0.807-1.48-3.096-4.981-4.711-7.269v20.865h-2.019V27.971c-1.886,4.711-4.577,9.692-7,12.521
		c-0.27-0.539-0.808-1.347-1.077-1.752c2.827-3.095,6.058-9.153,7.808-14.402h-7.134v-1.885h7.403v-7.27
		c-2.153,0.405-4.442,0.809-6.461,1.212c-0.136-0.404-0.404-1.077-0.673-1.616c4.711-0.807,10.229-2.019,13.324-3.365l1.347,1.615
		c-1.48,0.673-3.499,1.212-5.652,1.75v7.673h6.595v1.885h-6.461V25.414z M220.481,37.394v11.174h-2.019V37.663l-14.27,2.154
		l-0.27-1.885l14.673-2.289V10.607h2.02v24.768l5.385-0.807l0.27,1.886L220.481,37.394z M213.886,31.875
		c-1.615-1.75-4.98-4.308-7.807-5.924l1.211-1.21c2.827,1.615,6.326,4.038,7.941,5.788L213.886,31.875z M214.693,20.837
		c-1.347-1.75-4.442-4.172-6.999-5.789l1.211-1.212c2.692,1.482,5.653,3.905,7.134,5.52L214.693,20.837z"/>
	<path id="XMLID_19_" fill="#FFFFFF" d="M244.039,31.202c-1.75,0.539-3.634,1.077-5.385,1.75v12.924
		c0,1.479-0.404,2.019-1.346,2.422c-0.942,0.27-2.559,0.404-5.385,0.27c-0.135-0.538-0.404-1.346-0.673-1.886
		c2.153,0,4.038,0,4.576,0c0.539,0,0.809-0.27,0.809-0.806V33.625c-2.02,0.54-3.904,1.212-5.52,1.75l-0.674-2.02
		c1.75-0.403,3.904-1.077,6.193-1.75v-10.23h-5.789v-1.885h5.789v-8.75h2.019v8.75h4.98v1.885h-4.98v9.557
		c1.614-0.538,3.366-1.077,5.116-1.48L244.039,31.202z M265.846,27.03c-1.75,5.652-4.979,10.23-8.885,13.729
		c3.232,2.827,7.001,4.847,11.442,6.058c-0.539,0.405-0.942,1.213-1.346,1.751c-4.577-1.346-8.347-3.501-11.577-6.463
		c-3.903,3.097-8.211,5.25-12.519,6.463c-0.269-0.538-0.808-1.346-1.078-1.886c4.175-1.076,8.481-3.096,12.116-6.057
		c-3.23-3.365-5.654-7.403-7.403-12.25h-1.48v-1.885h9.422v-7h-10.364v-1.884h10.364v-7h2.02v7h10.365v1.884h-10.365v7h7.538
		l0.403-0.134L265.846,27.03z M248.615,28.51c1.481,4.172,3.904,7.943,7,11.038c3.23-2.962,6.058-6.596,7.674-11.038H248.615z"/>
</g>
<g id="XMLID_51_">
	<path id="XMLID_52_" fill="#FFFFFF" d="M107.408,56.778l0.27-0.27c0.404,0.403,0.808,0.673,1.481,0.673
		c0.673,0,1.211-0.403,1.211-0.942c0-0.538-0.404-0.808-0.808-0.941l-0.673-0.27c-0.404-0.135-0.942-0.539-0.942-1.212
		s0.673-1.211,1.48-1.211c0.539,0,1.077,0.269,1.346,0.538l-0.269,0.27c-0.269-0.27-0.673-0.539-1.212-0.539
		c-0.673,0-1.077,0.27-1.077,0.809c0,0.537,0.539,0.807,0.808,0.942l0.673,0.269c0.539,0.27,1.077,0.538,1.077,1.346
		c0,0.809-0.673,1.346-1.615,1.346C108.351,57.585,107.813,57.317,107.408,56.778z"/>
	<path id="XMLID_54_" fill="#FFFFFF" d="M111.716,52.201h0.404v1.481v0.807c0.404-0.403,0.673-0.673,1.211-0.673
		c0.808,0,1.077,0.403,1.077,1.347v2.288h-0.404v-2.288c0-0.808-0.269-1.077-0.807-1.077c-0.404,0-0.673,0.27-1.077,0.673v2.692
		h-0.404V52.201L111.716,52.201z"/>
	<path id="XMLID_56_" fill="#FFFFFF" d="M115.485,56.644c0-0.808,0.674-1.212,2.289-1.346c0-0.539-0.135-1.078-0.808-1.078
		c-0.404,0-0.943,0.27-1.077,0.405l-0.135-0.27c0.269-0.136,0.808-0.403,1.347-0.403c0.808,0,1.211,0.673,1.211,1.346v2.287h-0.27
		v-0.403l0,0c-0.404,0.27-0.807,0.539-1.211,0.539C116.023,57.585,115.485,57.182,115.485,56.644z M117.774,56.644v-1.212
		c-1.346,0.135-1.884,0.539-1.884,1.077c0,0.539,0.269,0.673,0.673,0.673S117.369,57.048,117.774,56.644z"/>
	<path id="XMLID_59_" fill="#FFFFFF" d="M119.523,53.952h0.27v0.537l0,0c0.404-0.403,0.673-0.673,1.211-0.673
		c0.808,0,1.077,0.403,1.077,1.347v2.288h-0.404v-2.288c0-0.808-0.269-1.077-0.808-1.077c-0.403,0-0.673,0.27-1.077,0.673v2.692
		h-0.404v-3.499H119.523z"/>
	<path id="XMLID_61_" fill="#FFFFFF" d="M123.293,58.258c0-0.268,0.269-0.673,0.538-0.807l0,0c-0.135-0.134-0.27-0.27-0.27-0.539
		c0-0.269,0.27-0.538,0.404-0.673l0,0c-0.27-0.134-0.404-0.538-0.404-0.941c0-0.809,0.539-1.212,1.346-1.212
		c0.135,0,0.405,0,0.539,0.134h1.212v0.27h-0.808c0.269,0.136,0.404,0.539,0.404,0.809c0,0.673-0.539,1.211-1.212,1.211
		c-0.135,0-0.403,0-0.538-0.135c-0.135,0.135-0.27,0.27-0.27,0.538c0,0.27,0.135,0.405,0.673,0.405h0.808
		c0.809,0,1.212,0.268,1.212,0.807c0,0.673-0.673,1.212-1.75,1.212C123.966,59.201,123.293,58.797,123.293,58.258z M126.12,57.99
		c0-0.405-0.269-0.539-0.807-0.539h-0.673c-0.135,0-0.27,0-0.405,0c-0.269,0.27-0.404,0.539-0.404,0.673
		c0,0.403,0.404,0.673,1.211,0.673C125.581,58.932,126.12,58.394,126.12,57.99z M125.581,55.028c0-0.539-0.403-0.942-0.941-0.942
		c-0.54,0-0.943,0.403-0.943,0.942c0,0.538,0.404,0.942,0.943,0.942C125.178,56.105,125.581,55.701,125.581,55.028z"/>
	<path id="XMLID_65_" fill="#FFFFFF" d="M127.332,52.201h0.403v1.481v0.807c0.404-0.403,0.673-0.673,1.211-0.673
		c0.808,0,1.077,0.403,1.077,1.347v2.288h-0.404v-2.288c0-0.808-0.269-1.077-0.808-1.077c-0.403,0-0.673,0.27-1.077,0.673v2.692
		h-0.403V52.201L127.332,52.201z"/>
	<path id="XMLID_67_" fill="#FFFFFF" d="M131.235,56.644c0-0.808,0.673-1.212,2.288-1.346c0-0.539-0.134-1.078-0.807-1.078
		c-0.404,0-0.943,0.27-1.077,0.405l-0.135-0.27c0.269-0.136,0.808-0.403,1.346-0.403c0.808,0,1.212,0.673,1.212,1.346v2.287h-0.269
		v-0.403l0,0c-0.404,0.27-0.809,0.539-1.212,0.539C131.639,57.585,131.235,57.182,131.235,56.644z M133.523,56.644v-1.212
		c-1.346,0.135-1.884,0.539-1.884,1.077c0,0.539,0.269,0.673,0.673,0.673C132.716,57.182,132.984,57.048,133.523,56.644z"/>
	<path id="XMLID_70_" fill="#FFFFFF" d="M135.139,52.74c0-0.135,0.135-0.27,0.27-0.27c0.134,0,0.269,0.135,0.269,0.27
		c0,0.134-0.135,0.27-0.269,0.27C135.273,53.01,135.139,52.874,135.139,52.74z M135.273,53.952h0.404v3.633h-0.404V53.952z"/>
	<path id="XMLID_73_" fill="#FFFFFF" d="M138.639,52.605h0.403v2.153h2.558v-2.153h0.404v4.846H141.6v-2.423h-2.558v2.423h-0.403
		V52.605z"/>
	<path id="XMLID_75_" fill="#FFFFFF" d="M143.484,56.239v-2.287h0.404v2.287c0,0.673,0.269,1.078,0.808,1.078
		c0.403,0,0.673-0.27,1.077-0.674v-2.558h0.404v3.635h-0.269v-0.539l0,0c-0.404,0.403-0.673,0.673-1.211,0.673
		C143.754,57.585,143.484,57.048,143.484,56.239z"/>
	<path id="XMLID_77_" fill="#FFFFFF" d="M147.253,56.644c0-0.808,0.673-1.212,2.289-1.346c0-0.539-0.135-1.078-0.808-1.078
		c-0.404,0-0.942,0.27-1.077,0.405l-0.134-0.27c0.269-0.136,0.807-0.403,1.346-0.403c0.807,0,1.21,0.673,1.21,1.346v2.287h-0.268
		v-0.403l0,0c-0.405,0.27-0.808,0.539-1.212,0.539C147.792,57.585,147.253,57.182,147.253,56.644z M149.542,56.644v-1.212
		c-1.346,0.135-1.885,0.539-1.885,1.077c0,0.539,0.27,0.673,0.673,0.673C148.869,57.182,149.139,57.048,149.542,56.644z"/>
	<path id="XMLID_80_" fill="#FFFFFF" d="M150.484,59.066l0.134-0.27c0.134,0,0.27,0.135,0.404,0.135
		c0.403,0,0.403-0.269,0.403-0.808v-4.172h0.405v4.172c0,0.673-0.27,1.077-0.809,1.077
		C150.753,59.201,150.484,59.066,150.484,59.066z M151.292,52.74c0-0.135,0.134-0.27,0.27-0.27c0.134,0,0.27,0.135,0.27,0.27
		c0,0.134-0.136,0.27-0.27,0.27C151.426,53.01,151.292,52.874,151.292,52.74z"/>
	<path id="XMLID_83_" fill="#FFFFFF" d="M153.177,56.239v-2.287h0.403v2.287c0,0.673,0.27,1.078,0.808,1.078
		c0.403,0,0.673-0.27,1.076-0.674v-2.558h0.405v3.635h-0.27v-0.539l0,0c-0.403,0.403-0.673,0.673-1.212,0.673
		C153.445,57.585,153.177,57.048,153.177,56.239z"/>
	<path id="XMLID_85_" fill="#FFFFFF" d="M156.945,56.644c0-0.808,0.674-1.212,2.289-1.346c0-0.539-0.135-1.078-0.809-1.078
		c-0.403,0-0.942,0.27-1.076,0.405l-0.134-0.27c0.268-0.136,0.807-0.403,1.346-0.403c0.808,0,1.211,0.673,1.211,1.346v2.287h-0.27
		v-0.403l0,0c-0.403,0.27-0.808,0.539-1.211,0.539C157.483,57.585,156.945,57.182,156.945,56.644z M159.234,56.644v-1.212
		c-1.346,0.135-1.885,0.539-1.885,1.077c0,0.539,0.27,0.673,0.673,0.673S158.83,57.048,159.234,56.644z"/>
	<path id="XMLID_88_" fill="#FFFFFF" d="M160.984,53.952h0.27v0.537l0,0c0.403-0.403,0.673-0.673,1.21-0.673
		c0.809,0,1.077,0.403,1.077,1.347v2.288h-0.403v-2.288c0-0.808-0.27-1.077-0.808-1.077c-0.403,0-0.673,0.27-1.076,0.673v2.692
		h-0.405v-3.499H160.984z"/>
	<path id="XMLID_90_" fill="#FFFFFF" d="M166.771,52.605h0.403v4.846h-0.403V52.605z"/>
	<path id="XMLID_92_" fill="#FFFFFF" d="M168.657,53.952h0.269v0.537l0,0c0.404-0.403,0.673-0.673,1.212-0.673
		c0.808,0,1.076,0.403,1.076,1.347v2.288h-0.403v-2.288c0-0.808-0.27-1.077-0.807-1.077c-0.405,0-0.674,0.27-1.078,0.673v2.692
		h-0.403v-3.499H168.657z"/>
	<path id="XMLID_94_" fill="#FFFFFF" d="M174.176,52.471c-0.134,0-0.27-0.135-0.403-0.135c-0.403,0-0.539,0.27-0.539,0.808v0.673
		h0.809v0.27h-0.809v3.231h-0.403v-3.231h-0.539v-0.27h0.539V53.01c0-0.674,0.27-1.077,0.942-1.077c0.134,0,0.403,0,0.537,0.135
		L174.176,52.471z"/>
	<path id="XMLID_96_" fill="#FFFFFF" d="M174.445,55.701c0-1.212,0.807-1.885,1.615-1.885c0.808,0,1.614,0.673,1.614,1.885
		c0,1.211-0.807,1.884-1.614,1.884C175.252,57.585,174.445,56.912,174.445,55.701z M177.271,55.701c0-0.942-0.538-1.481-1.211-1.481
		s-1.212,0.674-1.212,1.481c0,0.942,0.539,1.48,1.212,1.48S177.271,56.644,177.271,55.701z"/>
	<path id="XMLID_99_" fill="#FFFFFF" d="M178.887,53.952h0.27v0.673l0,0c0.27-0.405,0.538-0.809,1.077-0.809
		c0.134,0,0.269,0,0.403,0.136l-0.135,0.403c-0.135,0-0.135,0-0.269,0c-0.27,0-0.674,0.27-0.943,0.942v2.423h-0.403V53.952z"/>
	<path id="XMLID_101_" fill="#FFFFFF" d="M181.31,53.952h0.27v0.537l0,0c0.27-0.403,0.673-0.673,1.076-0.673
		c0.539,0,0.809,0.27,0.942,0.673c0.404-0.403,0.808-0.673,1.212-0.673c0.675,0,1.078,0.403,1.078,1.347v2.288h-0.403v-2.288
		c0-0.808-0.27-1.077-0.81-1.077c-0.27,0-0.673,0.27-1.077,0.673v2.692h-0.403v-2.288c0-0.808-0.27-1.077-0.809-1.077
		c-0.268,0-0.673,0.27-1.076,0.673v2.692h-0.403v-3.499H181.31z"/>
	<path id="XMLID_103_" fill="#FFFFFF" d="M187.233,56.644c0-0.808,0.673-1.212,2.289-1.346c0-0.539-0.136-1.078-0.809-1.078
		c-0.403,0-0.942,0.27-1.077,0.405l-0.134-0.27c0.269-0.136,0.808-0.403,1.346-0.403c0.808,0,1.211,0.673,1.211,1.346v2.287h-0.403
		v-0.403l0,0c-0.403,0.27-0.808,0.539-1.212,0.539C187.771,57.585,187.233,57.182,187.233,56.644z M189.522,56.644v-1.212
		c-1.347,0.135-1.886,0.539-1.886,1.077c0,0.539,0.27,0.673,0.674,0.673C188.849,57.182,189.117,57.048,189.522,56.644z"/>
	<path id="XMLID_106_" fill="#FFFFFF" d="M191.271,56.509V54.22h-0.539v-0.268h0.539v-1.078h0.27v1.078h1.077v0.268h-1.077v2.289
		c0,0.403,0.134,0.809,0.538,0.809c0.135,0,0.27,0,0.403-0.136l0.136,0.27c-0.27,0.134-0.404,0.134-0.539,0.134
		C191.541,57.585,191.271,57.182,191.271,56.509z"/>
	<path id="XMLID_108_" fill="#FFFFFF" d="M193.561,52.74c0-0.135,0.134-0.27,0.268-0.27c0.136,0,0.27,0.135,0.27,0.27
		c0,0.134-0.134,0.27-0.27,0.27C193.694,53.01,193.561,52.874,193.561,52.74z M193.694,53.952h0.403v3.633h-0.403V53.952z"/>
	<path id="XMLID_124_" fill="#FFFFFF" d="M195.175,55.701c0-1.212,0.808-1.885,1.615-1.885c0.809,0,1.615,0.673,1.615,1.885
		c0,1.211-0.807,1.884-1.615,1.884C195.982,57.585,195.175,56.912,195.175,55.701z M198.002,55.701c0-0.942-0.539-1.481-1.212-1.481
		s-1.211,0.674-1.211,1.481c0,0.942,0.538,1.48,1.211,1.48C197.599,57.182,198.002,56.644,198.002,55.701z"/>
	<path id="XMLID_127_" fill="#FFFFFF" d="M199.617,53.952h0.269v0.537l0,0c0.404-0.403,0.673-0.673,1.212-0.673
		c0.807,0,1.076,0.403,1.076,1.347v2.288h-0.403v-2.288c0-0.808-0.27-1.077-0.807-1.077c-0.405,0-0.674,0.27-1.078,0.673v2.692
		h-0.403v-3.499H199.617z"/>
	<path id="XMLID_129_" fill="#FFFFFF" d="M206.349,52.874h-1.481v-0.403h3.5v0.403h-1.48v4.577h-0.404v-4.577H206.349z"/>
	<path id="XMLID_131_" fill="#FFFFFF" d="M208.636,55.701c0-1.212,0.809-1.885,1.615-1.885c0.809,0,1.347,0.673,1.347,1.615
		c0,0.135,0,0.135,0,0.27h-2.557c0,0.808,0.537,1.48,1.346,1.48c0.403,0,0.673-0.134,0.941-0.27l0.135,0.27
		c-0.27,0.136-0.673,0.403-1.076,0.403C209.309,57.585,208.636,56.912,208.636,55.701z M211.193,55.432
		c0-0.807-0.403-1.346-1.076-1.346c-0.539,0-1.076,0.539-1.212,1.346H211.193z"/>
	<path id="XMLID_134_" fill="#FFFFFF" d="M212.271,55.701c0-1.212,0.809-1.885,1.615-1.885c0.539,0,0.808,0.27,1.077,0.403
		l-0.27,0.27c-0.269-0.27-0.538-0.403-0.808-0.403c-0.673,0-1.212,0.673-1.212,1.48c0,0.942,0.539,1.481,1.212,1.481
		c0.403,0,0.673-0.136,0.942-0.404l0.135,0.269c-0.27,0.27-0.674,0.405-1.077,0.405C212.943,57.585,212.271,56.912,212.271,55.701z"
		/>
	<path id="XMLID_136_" fill="#FFFFFF" d="M216.039,52.201h0.404v1.481v0.807c0.404-0.403,0.674-0.673,1.211-0.673
		c0.809,0,1.077,0.403,1.077,1.347v2.288h-0.404v-2.288c0-0.808-0.269-1.077-0.807-1.077c-0.403,0-0.673,0.27-1.077,0.673v2.692
		h-0.404V52.201z"/>
	<path id="XMLID_138_" fill="#FFFFFF" d="M220.077,53.952h0.27v0.537l0,0c0.403-0.403,0.673-0.673,1.212-0.673
		c0.807,0,1.076,0.403,1.076,1.347v2.288h-0.402v-2.288c0-0.808-0.271-1.077-0.81-1.077c-0.403,0-0.673,0.27-1.076,0.673v2.692
		h-0.403v-3.499H220.077z"/>
	<path id="XMLID_140_" fill="#FFFFFF" d="M223.848,55.701c0-1.212,0.808-1.885,1.614-1.885c0.809,0,1.616,0.673,1.616,1.885
		c0,1.211-0.808,1.884-1.616,1.884C224.655,57.585,223.848,56.912,223.848,55.701z M226.674,55.701c0-0.942-0.538-1.481-1.212-1.481
		c-0.673,0-1.21,0.674-1.21,1.481c0,0.942,0.537,1.48,1.21,1.48C226.136,57.182,226.674,56.644,226.674,55.701z"/>
	<path id="XMLID_143_" fill="#FFFFFF" d="M228.29,56.912v-4.845h0.403v4.845c0,0.136,0,0.27,0.134,0.27c0,0,0,0,0.136,0v0.27
		c0,0-0.136,0-0.27,0C228.424,57.585,228.29,57.317,228.29,56.912z"/>
	<path id="XMLID_145_" fill="#FFFFFF" d="M229.905,55.701c0-1.212,0.807-1.885,1.614-1.885c0.809,0,1.615,0.673,1.615,1.885
		c0,1.211-0.807,1.884-1.615,1.884C230.712,57.585,229.905,56.912,229.905,55.701z M232.731,55.701c0-0.942-0.539-1.481-1.212-1.481
		s-1.211,0.674-1.211,1.481c0,0.942,0.538,1.48,1.211,1.48S232.731,56.644,232.731,55.701z"/>
	<path id="XMLID_148_" fill="#FFFFFF" d="M233.943,58.258c0-0.268,0.269-0.673,0.538-0.807l0,0c-0.135-0.134-0.27-0.27-0.27-0.539
		c0-0.269,0.27-0.538,0.404-0.673l0,0c-0.27-0.134-0.404-0.538-0.404-0.941c0-0.809,0.538-1.212,1.346-1.212
		c0.136,0,0.404,0,0.539,0.134h1.212v0.27H236.5c0.27,0.136,0.403,0.539,0.403,0.809c0,0.673-0.537,1.211-1.21,1.211
		c-0.136,0-0.404,0-0.539-0.135c-0.135,0.135-0.27,0.27-0.27,0.538c0,0.27,0.135,0.405,0.673,0.405h0.809
		c0.807,0,1.21,0.268,1.21,0.807c0,0.673-0.673,1.212-1.749,1.212C234.616,59.201,233.943,58.797,233.943,58.258z M236.77,57.99
		c0-0.405-0.27-0.539-0.808-0.539h-0.673c-0.135,0-0.27,0-0.404,0c-0.269,0.27-0.403,0.539-0.403,0.673
		c0,0.403,0.403,0.673,1.212,0.673C236.23,58.932,236.77,58.394,236.77,57.99z M236.23,55.028c0-0.539-0.403-0.942-0.941-0.942
		c-0.539,0-0.942,0.403-0.942,0.942c0,0.538,0.403,0.942,0.942,0.942C235.827,56.105,236.23,55.701,236.23,55.028z"/>
	<path id="XMLID_152_" fill="#FFFFFF" d="M237.712,59.066l0.134-0.27c0.136,0,0.136,0,0.27,0c0.404,0,0.673-0.403,0.942-0.942
		l0.135-0.27l-1.48-3.633h0.403l0.808,2.153c0.135,0.269,0.27,0.673,0.404,0.942l0,0c0.135-0.27,0.269-0.674,0.269-0.942
		l0.673-2.153h0.406l-1.348,4.038c-0.27,0.673-0.539,1.211-1.212,1.211C237.981,59.066,237.846,59.066,237.712,59.066z"/>
	<path id="XMLID_154_" fill="#FFFFFF" d="M242.828,55.028c0-1.615,0.807-2.558,2.152-2.558c0.539,0,1.078,0.27,1.347,0.539
		l-0.269,0.27c-0.27-0.27-0.673-0.539-1.078-0.539c-1.076,0-1.749,0.807-1.749,2.153c0,1.346,0.673,2.154,1.615,2.154
		c0.539,0,0.808-0.27,1.212-0.539l0.269,0.27c-0.404,0.403-0.808,0.673-1.48,0.673C243.771,57.585,242.828,56.644,242.828,55.028z"
		/>
	<path id="XMLID_156_" fill="#FFFFFF" d="M247.135,55.701c0-1.212,0.808-1.885,1.616-1.885c0.807,0,1.614,0.673,1.614,1.885
		c0,1.211-0.808,1.884-1.614,1.884C247.942,57.585,247.135,56.912,247.135,55.701z M249.961,55.701c0-0.942-0.537-1.481-1.21-1.481
		s-1.212,0.674-1.212,1.481c0,0.942,0.539,1.48,1.212,1.48C249.558,57.182,249.961,56.644,249.961,55.701z"/>
	<path id="XMLID_159_" fill="#FFFFFF" d="M251.308,57.182c0-0.27,0.135-0.403,0.403-0.403c0.136,0,0.405,0.134,0.405,0.403
		s-0.136,0.403-0.405,0.403C251.442,57.585,251.308,57.451,251.308,57.182z"/>
	<path id="XMLID_161_" fill="#FFFFFF" d="M252.923,58.394c0.403-0.136,0.539-0.539,0.539-0.942c0,0,0,0-0.136,0
		c-0.134,0-0.403-0.134-0.403-0.403s0.134-0.27,0.403-0.27s0.404,0.27,0.404,0.539c0,0.537-0.269,0.94-0.808,1.21V58.394z"/>
	<path id="XMLID_163_" fill="#FFFFFF" d="M256.691,52.605h0.403v4.576h2.29v0.403h-2.693V52.605z"/>
	<path id="XMLID_165_" fill="#FFFFFF" d="M260.193,56.509V54.22h-0.539v-0.268h0.539v-1.078h0.267v1.078h1.079v0.268h-1.079v2.289
		c0,0.403,0.137,0.809,0.54,0.809c0.133,0,0.27,0,0.403-0.136l0.136,0.27c-0.27,0.134-0.406,0.134-0.539,0.134
		C260.46,57.585,260.193,57.182,260.193,56.509z"/>
	<path id="XMLID_167_" fill="#FFFFFF" d="M262.212,55.701c0-1.212,0.673-1.885,1.614-1.885c0.405,0,0.673,0.136,1.078,0.403v-0.673
		v-1.479h0.403v5.384h-0.27v-0.403l0,0c-0.27,0.27-0.673,0.537-1.212,0.537C262.75,57.585,262.212,56.912,262.212,55.701z
		 M264.904,56.644v-2.019c-0.405-0.27-0.673-0.405-0.942-0.405c-0.673,0-1.212,0.674-1.212,1.481c0,0.942,0.403,1.48,1.076,1.48
		C264.096,57.182,264.499,57.048,264.904,56.644z"/>
	<path id="XMLID_170_" fill="#FFFFFF" d="M266.519,57.182c0-0.27,0.135-0.403,0.404-0.403c0.269,0,0.404,0.134,0.404,0.403
		s-0.136,0.403-0.404,0.403C266.653,57.585,266.519,57.451,266.519,57.182z"/>
</g>
<g>
</g>
<g>
</g>
<g>
</g>
<g>
</g>
<g>
</g>
<g>
</g>
</svg>
