<?xml version="1.0" encoding="utf-8"?>
<!-- Generator: Adobe Illustrator 16.0.0, SVG Export Plug-In . SVG Version: 6.00 Build 0)  -->
<!DOCTYPE svg PUBLIC "-//W3C//DTD SVG 1.1 Tiny//EN" "http://www.w3.org/Graphics/SVG/1.1/DTD/svg11-tiny.dtd">
<svg version="1.1" baseProfile="tiny" id="图层_1"
	 xmlns="http://www.w3.org/2000/svg" xmlns:xlink="http://www.w3.org/1999/xlink" x="0px" y="0px" width="300px" height="70px"
	 viewBox="0 0 300 70" xml:space="preserve">
<g>
	<path fill="#FFFFFF" d="M84.035,24.993H66.047v7.277h17.156c-0.621,9.576-11.378,16.755-22.459,13.311
		c-6.371-1.981-10.83-6.603-12.791-12.998c-3.365-10.986,3.992-20.25,11.229-23.188c6.82-2.77,16.29-0.5,19.757,3.848h0.311
		c1.664-1.699,3.328-3.396,4.992-5.094c-4.02-3.073-7.443-5.746-13.517-6.967C55.661-1.849,44.523,8.913,40.779,18.545
		c-2.443,6.29-1.453,15.699,1.457,20.691c4.251,7.299,10.339,12.292,20.067,14.14c13.778,2.619,23.864-6.288,27.034-15.281
		c0.853-2.419,2.465-9.799,1.041-12.896C89.806,24.704,85.246,24.993,84.035,24.993z M203.821,52.547h7.381V2.844h-7.381V52.547z
		 M109.614,19.585c-1.525,0.275-3.05,0.554-4.576,0.831c-4.865,1.56-8.546,5.189-10.397,9.774
		c-4.687,11.602,5.073,25.344,17.468,23.396c7.293-1.146,12.04-4.637,14.454-10.606C131.652,30.398,121.65,19.421,109.614,19.585z
		 M111.486,46.829c-6.886,1.164-12.005-6.839-9.982-13.52c0.877-2.896,3.033-5.249,5.719-6.343c0.97-0.207,1.942-0.416,2.913-0.623
		C122.923,26.374,123.282,44.832,111.486,46.829z M146.319,19.585c-1.421,0.242-2.843,0.484-4.264,0.727
		c-5.009,1.525-8.86,5.182-10.71,9.878c-4.568,11.605,5.125,25.354,17.468,23.396c6.922-1.101,11.743-4.32,14.141-9.877
		C168.435,31.014,158.963,19.407,146.319,19.585z M148.191,46.829c-6.888,1.164-12.009-6.834-9.982-13.52
		c0.877-2.891,3.031-5.254,5.717-6.343c0.972-0.207,1.943-0.416,2.914-0.623C159.617,26.374,159.968,44.834,148.191,46.829z
		 M199.558,20.625h-7.175v2.805h-0.104c-1.464-1.126-2.656-2.382-4.577-3.119c-8.337-3.2-15.736,2.941-18.612,7.798
		c-1.247,2.105-1.706,4.579-2.183,7.485c-1.559,9.481,8.812,19.79,18.403,17.887c2.426-0.48,3.884-1.658,5.719-2.495
		c0.416-0.419,0.831-0.833,1.248-1.252c0.724,1.768-0.12,5.063-0.52,6.346c-2.496,7.98-14.758,7.676-16.845-0.104
		c-2.219,0.9-4.438,1.803-6.657,2.701c3.255,10.169,20.396,14.188,27.661,4.786c1.429-1.852,2.478-4.257,3.117-6.864
		c0.896-3.638,0.52-8.54,0.52-12.892V20.625H199.558z M184.793,46.829c-6.661,1.167-11.774-6.556-9.981-13.102
		c0.867-3.177,3.094-5.747,6.029-6.864c0.866-0.173,1.732-0.347,2.599-0.52C195.578,26.45,195.899,44.88,184.793,46.829z
		 M239.486,42.147c-1.638,1.42-2.565,3.144-4.783,4.055c-5.304,2.188-10.044-0.977-11.75-4.47
		c7.554-3.118,15.113-6.238,22.666-9.358c-2.809-7.031-6.49-12.907-16.428-12.789c-1.074,0.173-2.149,0.345-3.225,0.52
		c-3.478,1.03-6.51,3.1-8.422,5.719c-5.546,7.594-3.61,19.246,2.911,24.227c6.696,5.113,15.625,4.213,21.732-0.624
		c1.069-0.847,2.65-2.048,3.015-3.535c-1.836-1.179-3.673-2.356-5.511-3.535C239.625,42.287,239.555,42.217,239.486,42.147z
		 M227.425,26.863c0.797-0.208,1.594-0.416,2.391-0.623c3.451-0.04,5.75,1.134,6.862,3.431c-4.989,2.114-9.981,4.228-14.973,6.344
		C221.666,31.297,224.144,28.255,227.425,26.863z"/>
</g>
<g>
</g>
<g>
</g>
<g>
</g>
<g>
</g>
<g>
</g>
<g>
</g>
</svg>
