<?xml version="1.0" encoding="utf-8"?>
<!-- Generator: Adobe Illustrator 16.0.0, SVG Export Plug-In . SVG Version: 6.00 Build 0)  -->
<!DOCTYPE svg PUBLIC "-//W3C//DTD SVG 1.1 Tiny//EN" "http://www.w3.org/Graphics/SVG/1.1/DTD/svg11-tiny.dtd">
<svg version="1.1" baseProfile="tiny" id="图层_1"
	 xmlns="http://www.w3.org/2000/svg" xmlns:xlink="http://www.w3.org/1999/xlink" x="0px" y="0px" width="300px" height="70px"
	 viewBox="0 0 300 70" xml:space="preserve">
<g>
	<path fill="#FFFFFF" d="M77.711,20.648C75.746,14.553,72.06,8.139,66.207,5.95c-1.403-0.524-3.062-0.49-4.952-0.479
		c-0.822,0.603-2.173,0.589-3.035,1.117c-1.868,1.147-3.639,3.281-4.314,5.593c-1.954,6.693,6.229,11.854,10.703,7.508h0.161
		c-0.75,1.433-1.888,2.778-2.557,4.313c-1.014,2.332-1.447,4.963-2.076,7.669c-0.107,2.13-0.212,4.261-0.319,6.39
		c0.184,0.854,0.59,3.104,0.16,3.836c-0.317,0.871-1.332,0.942-1.916,0.316c-0.798-1.071-0.122-2.868-0.479-4.474
		c-1.062-4.78,2.123-9.375,0-12.621c-3.158-4.831-8.08-8.372-14.217-10.224c-9.026-2.723-19.36,2.212-23.005,7.03
		c-1.213,1.602-3,2.962-3.676,5.112C8.734,27.326,4.068,31.531,1.827,37.582c-0.896,2.423-1.425,6.632-0.479,9.586
		c0.536,1.674,1.428,3.598,2.397,4.953c1.756,2.459,4.241,3.646,6.869,5.271c8.951,5.535,30.367,8.894,44.094,5.112
		c13.177-3.63,20.282-9.869,23.803-23.162c0.676-2.555,1.154-9.584,0.48-12.624C78.562,24.696,78.137,22.671,77.711,20.648z
		 M217.02,20.648v33.709h6.072V31.193c0-2.648,0.521-8.461-0.16-10.544H217.02z M298.816,51.642V30.234
		c0-2.628,0.556-7.412-0.161-9.585c-1.792-0.014-4.422-0.339-5.909,0.16v12.621h-0.159c-0.895-2.552-6.438-3.417-9.588-2.236
		c-4.004,1.502-5.62,4.73-6.708,9.266c-0.212,0.87-0.574,2.336-0.319,3.515c0.438,2.051,0.596,3.957,1.437,5.594
		c1.785,3.478,6.879,6.908,12.301,4.632c1.512-0.635,2.301-1.992,3.514-2.875v-0.32h0.16c0.052,1.119,0.107,2.236,0.161,3.356h5.431
		C298.998,53.569,299.147,52.146,298.816,51.642z M292.746,42.214c0,3.948-0.314,5.861-2.878,7.19
		c-0.401,0.211-1.449,0.696-2.075,0.641c-4.914-0.433-7.185-6.21-4.953-11.344c0.541-1.249,1.765-2.505,3.035-3.036
		c0.45-0.184,1.07-0.095,1.435-0.318c3.03,0.013,4.773,1.64,5.433,3.995v2.871H292.746z M144.649,28.157
		c0.729-0.38,3.421-1.639,4.313-1.119c1.829-0.119,5.744-0.066,7.029,1.119c0.571-0.321,1.433-3.901,1.598-4.792
		c-2.633-1.121-5.816-1.518-9.745-1.437c-1.001,0.613-3.458,0.488-4.632,0.957c-3.674,1.472-6.521,3.831-8.466,7.03
		c-0.99,1.625-1.441,3.844-1.917,5.911c-0.557,2.408-0.085,5.625,0.478,7.509c2.01,6.711,5.534,9.725,12.623,11.343
		c4.003,0.912,8.117-0.68,11.183-1.119c0.146-0.173-0.015-0.016,0.158-0.159c-0.075-0.989-0.506-3.79-0.956-4.476v-0.318
		c-1.275,0.343-2.708,0.79-4.153,1.119c-1.186,0.271-3.378,0.068-4.313-0.159c-5.393-1.315-7.529-3.552-8.787-8.945
		c-0.277-1.192-0.059-3.372,0.16-4.313C140.207,32.018,141.233,29.934,144.649,28.157z M202.32,27.678
		c1.019-0.412,3.23-1.115,4.794-0.8c1.596,0.322,3.924,0.84,5.593,1.279c0.476-1.267,0.503-3.267,1.278-4.314
		c-0.395-1.768-7.019-2.004-9.745-1.916c-0.352,0.218-0.904,0.026-1.437,0.159c-1.331,0.375-2.665,0.747-3.995,1.12
		c-5.056,2.148-7.979,6.178-9.428,11.98c-0.394,1.582-0.349,4.524,0,6.073c0.277,1.229,0.12,2.101,0.479,3.194
		c1.845,5.604,5.56,8.302,11.503,9.906c2.755,0.742,9.883,0.715,11.822-0.802c0.16-0.051,0.32-0.104,0.479-0.159
		c-0.047-1.09-0.471-3.933-0.958-4.632c-0.229-0.094-3.307,0.765-4.154,0.957c-5.044,1.15-9.957-1.993-11.502-4.474
		c-0.681-1.089-1.097-2.646-1.438-3.993c-0.313-1.241-0.261-3.299,0-4.474C196.83,31.308,197.528,29.625,202.32,27.678z
		 M102.792,22.885v31.313c2.751,0.538,7.24,0.952,10.226,0.32c2.244-0.48,3.996-0.184,5.912-0.802
		c5.667-1.822,8.794-5.068,10.544-10.863c1.083-3.586,0.866-9.514-0.64-12.461C124.562,22.018,114.72,21.399,102.792,22.885z
		 M120.527,47.168c-2.93,2.229-6.603,2.753-11.662,2.557V27.199c5.081-0.388,10.421-0.107,12.94,3.354
		C124.823,34.705,124.401,44.221,120.527,47.168z M92.888,22.406v31.952c1.839,0.014,4.54,0.354,6.07-0.159V32.312
		c0-2.509,0.488-7.935-0.16-9.906H92.888z M160.466,22.406v31.952h5.91v-13.42h11.663v-4.952h-7.987
		c-1.176,0-2.764,0.142-3.676-0.16v-8.467h12.622c0.014-1.523,0.256-3.718-0.16-4.953H160.466z M248.173,35.985
		c-2.226-3.625-5.649-5.361-11.661-5.271c-1.099,0.692-2.835,0.593-3.994,1.117c-2.506,1.135-4.611,3.729-5.592,6.392
		c-3.33,9.023,3.938,18.893,13.579,16.454c4.461-1.129,7.416-3.778,8.787-7.988c0.301-0.923,0.085-1.663,0.318-2.716
		c0.308-1.371,0.226-3.437-0.159-4.791C249.178,38.217,248.698,36.84,248.173,35.985z M238.269,50.522
		c-4.142,0.664-6.829-5.796-5.595-10.224c0.498-1.771,1.315-3.596,2.719-4.473c0.489-0.306,1.133-0.319,1.595-0.641
		C245.993,34.987,245.334,49.392,238.269,50.522z M273.254,38.062c0-2.076,0.421-5.111-0.159-6.869
		c-1.796-0.014-4.422-0.339-5.909,0.16v10.224c0,1.612,0.273,3.777-0.162,5.112c-0.272,0.836-0.879,1.365-1.438,1.916
		c-1.153,1.143-4.183,2.007-5.751,0.479c-0.913-0.887-0.729-2.372-1.438-3.514v-9.746c0-1.446,0.228-3.469-0.158-4.633
		c-1.794-0.014-4.42-0.339-5.911,0.16c-0.055,9.116-1.538,19.56,4.633,22.685c1.454,0.739,4.385,1.198,6.388,0.48
		c2.144-0.768,2.791-2.103,4.313-3.194v-0.32h0.16c0.107,1.119,0.216,2.236,0.32,3.356h5.271c-0.029-0.558-0.097-1.12-0.159-1.28
		V38.062L273.254,38.062z"/>
</g>
<g>
</g>
<g>
</g>
<g>
</g>
<g>
</g>
<g>
</g>
<g>
</g>
</svg>
