<?xml version="1.0" encoding="utf-8"?>
<!-- Generator: Adobe Illustrator 16.0.0, SVG Export Plug-In . SVG Version: 6.00 Build 0)  -->
<!DOCTYPE svg PUBLIC "-//W3C//DTD SVG 1.1 Tiny//EN" "http://www.w3.org/Graphics/SVG/1.1/DTD/svg11-tiny.dtd">
<svg version="1.1" baseProfile="tiny" id="图层_1"
	 xmlns="http://www.w3.org/2000/svg" xmlns:xlink="http://www.w3.org/1999/xlink" x="0px" y="0px" width="300px" height="70px"
	 viewBox="0 0 300 70" xml:space="preserve">
<g>
	<path fill-rule="evenodd" fill="#FFFFFF" d="M130.489,29.12c-0.579-2.493-0.722-4.981-1.54-7.215
		c-1.59-4.351-3.636-7.904-6.157-11.258c-0.502-0.666-1.239-1.237-1.829-1.829c-2.862-2.864-6.109-4.965-10.198-6.64
		c-0.918-0.374-1.782-0.388-2.791-0.673c-1.556-0.44-3.352-0.578-5.388-0.578h-1.54c-1.814,0.415-3.641,0.419-5.292,0.963
		c-0.432,0.143-1.339,0.757-1.828,0.673c-0.069-0.011-0.391-0.254-0.481-0.288c-0.848-0.313-1.75-0.533-2.597-0.771
		c-2.181-0.614-4.757-0.601-7.505-0.578c-0.93,0.129-1.86,0.258-2.791,0.385c-1.862,0.503-3.774,0.929-5.387,1.731
		C66.82,7.198,61.789,13.901,58.712,23.346c-1.953,5.994-1.696,15.939,0.384,21.553c4.485,12.101,11.991,19.615,24.439,23.767
		c1.738,0.58,3.808,0.877,5.773,1.347c0.641,0.031,1.283,0.065,1.924,0.097c1.022,0.231,2.721,0.317,3.753,0.096
		c1.31-0.279,2.533,0.098,3.752-0.192c2.463-0.585,4.899-0.812,7.12-1.637c10.01-3.712,17.675-10.474,21.84-20.012
		c0.657-1.505,0.997-2.973,1.54-4.618c0.576-1.742,0.793-3.798,1.251-5.774c0.032-0.736,0.064-1.475,0.096-2.211
		c0.241-1.072,0.23-3.164,0-4.233C130.554,30.724,130.521,29.922,130.489,29.12z M87.769,21.712
		c0.865-3.261,2.302-5.402,4.042-7.698c0.537-0.709,1.496-1.097,2.116-1.731c1.37,0.372,2.409,1.852,3.175,2.885
		c1.38,1.86,2.449,3.762,3.176,6.352c0.216,0.77,0.191,1.577,0.191,2.501c0,4.108-2.081,6.417-5.388,7.215
		c-1.354,0.326-2.901-0.195-3.656-0.578C88.829,29.349,86.625,26.018,87.769,21.712z M121.349,37.586
		c-0.342,1.421-0.512,2.88-0.962,4.235c-2.868,8.629-8.685,14.344-16.838,17.702c-1.599,0.66-3.426,0.914-5.196,1.349
		c-0.879,0.216-1.854,0.098-2.694,0.288c-0.895,0.201-2.524,0.063-3.271-0.096c-1.36-0.292-2.502-0.061-3.753-0.385
		c-1.943-0.506-3.825-1.108-5.484-1.829c-6.797-2.955-11.686-7.927-14.625-14.721c-0.541-1.253-0.731-2.461-1.155-3.85
		c-1.071-3.508-1.322-9.538-0.192-13.277c2.106-6.973,5.348-11.977,10.969-15.396c1.078-0.655,2.465-1.056,3.752-1.443
		c0.582-0.175,1.521,0.011,2.021-0.288h0.771v0.098c-1.088,0.709-1.778,1.99-2.502,3.077c-2.999,4.505-5.201,12.586-2.021,18.763
		c1.942,3.771,5.214,6.585,9.526,7.986c0.997,0.324,2.119,0.345,3.176,0.578c0.661,0.145,1.798,0.014,2.309-0.098
		c0.513-0.032,1.026-0.063,1.54-0.095c1.793-0.449,3.445-0.988,4.811-1.829c3.58-2.205,5.994-4.868,7.408-9.237
		c1.884-5.817-0.664-12.479-2.982-15.971c-0.725-1.092-1.422-2.452-2.501-3.175V9.876c3.715,0.057,6.172,1.505,8.371,3.08
		c4.224,3.025,6.959,7.338,8.755,12.797c0.282,0.854,0.237,1.598,0.482,2.501C121.646,30.416,121.939,35.141,121.349,37.586z
		 M164.551,23.25h4.04v12.894h-0.095c-0.295-1.044-1.016-2.023-1.541-2.887c-0.689-1.135-1.165-2.375-1.829-3.465
		c-0.224-0.512-0.448-1.027-0.673-1.539c-1.629-2.674-2.9-5.57-4.426-8.371c-0.614-1.126-1.792-2.679-2.116-3.945h-12.7v7.313h4.042
		v22.034h-4.042v7.313h16.74v-7.313h-4.04V32.392h0.095c0.427,1.509,1.891,3.773,2.694,5.098c1.304,2.145,2.063,4.496,3.368,6.64
		c0.985,1.614,1.684,3.44,2.694,5.1c0.644,1.056,1.312,2.197,1.828,3.367h8.659V23.25h4.043v-7.313h-16.742V23.25z M183.697,30.083
		h7.313V23.25h3.848v22.034h-5.291v7.313h20.302v-7.313h-5.292V23.25h3.753v6.833h7.408V15.938h-32.04V30.083z M249.799,30.083
		V15.938h-31.753v14.145h7.313V23.25h3.851v22.034h-5.294v7.313h20.302v-7.313h-5.291V23.25h3.753v6.833H249.799z"/>
</g>
</svg>
